/* XPM */
static char *out[] = {
/* columns rows colors chars-per-pixel */
"32 32 217 2 ",
"   c None",
".  c black",
"X  c #010000",
"o  c #020000",
"O  c #020100",
"+  c #030100",
"@  c #040200",
"#  c #070300",
"$  c #080402",
"%  c #0C0601",
"&  c #0D0601",
"*  c #0C0602",
"=  c #0F0802",
"-  c #0E0803",
";  c #0B0806",
":  c gray4",
">  c #0F0B08",
",  c #100801",
"<  c #110903",
"1  c #140B05",
"2  c #150B06",
"3  c #1D1009",
"4  c #161211",
"5  c gray9",
"6  c #231203",
"7  c #281504",
"8  c #251409",
"9  c #27160A",
"0  c #29170A",
"q  c #2D1A0B",
"w  c #321A04",
"e  c #301B0A",
"r  c #331C0B",
"t  c #331D0D",
"y  c #351E0E",
"u  c #371F0E",
"i  c #2B1E16",
"p  c #3D2005",
"a  c #3D2310",
"s  c #3F2310",
"d  c #342E2D",
"f  c #432306",
"g  c #462506",
"h  c #462508",
"j  c #46260B",
"k  c #502A09",
"l  c #502B09",
"z  c #502B0B",
"x  c #542D0B",
"c  c #542D0C",
"v  c #542E0F",
"b  c #58300E",
"n  c #59300E",
"m  c #402410",
"M  c #452712",
"N  c #432715",
"B  c #462812",
"V  c #472916",
"C  c #492912",
"Z  c #4B2A13",
"A  c #4F2D14",
"S  c #522D10",
"D  c #522E15",
"F  c #532F17",
"G  c #563015",
"H  c #553017",
"J  c #583011",
"K  c #5C3210",
"L  c #5D3210",
"P  c #5D3310",
"I  c #593218",
"U  c #5F351A",
"Y  c #5F361A",
"T  c #603512",
"R  c #613512",
"E  c #653814",
"W  c #643817",
"Q  c #693A16",
"!  c #62381B",
"~  c #653818",
"^  c #61381F",
"/  c #64391C",
"(  c #65391C",
")  c #673B1C",
"_  c #693B19",
"`  c #6B3C1B",
"'  c #6D3D19",
"]  c #6E3D19",
"[  c #6E3E1E",
"{  c #713F1B",
"}  c #593924",
"|  c #423935",
" . c #72401B",
".. c #71401F",
"X. c #72411E",
"o. c #75421D",
"O. c #76421D",
"+. c #76421E",
"@. c #76431E",
"#. c #764322",
"$. c #774423",
"%. c #764425",
"&. c #784420",
"*. c #7A4520",
"=. c #7C4623",
"-. c #7E4722",
";. c #7E4925",
":. c #7C4926",
">. c #784928",
",. c #4D4848",
"<. c #625C5C",
"1. c #757474",
"2. c #804822",
"3. c #814924",
"4. c #814925",
"5. c #824A24",
"6. c #834A24",
"7. c #834A25",
"8. c #844A25",
"9. c #844B25",
"0. c #884D27",
"q. c #834B29",
"w. c #844C29",
"e. c #854C29",
"r. c #884E28",
"t. c #8B4F2B",
"y. c #8C5029",
"u. c #8D522C",
"i. c #90522C",
"p. c #94552E",
"a. c #95552E",
"s. c #96562F",
"d. c #805133",
"f. c #865434",
"g. c #8F5430",
"h. c #8C5936",
"j. c #855738",
"k. c #935732",
"l. c #985932",
"z. c #985B35",
"x. c #945E3B",
"c. c #9B5F3A",
"v. c #9C5F3A",
"b. c #885F44",
"n. c #9C6645",
"m. c #9A694C",
"M. c #9B6B4E",
"N. c #95715A",
"B. c #A5704F",
"V. c #A16F50",
"C. c #A77A5F",
"Z. c #8E7667",
"A. c #937460",
"S. c #907666",
"D. c #9A7D6D",
"F. c #837979",
"G. c #9A7E70",
"H. c #A67C61",
"J. c #A0826E",
"K. c #B28568",
"L. c #B0866B",
"P. c #A28C7E",
"I. c #B68E73",
"U. c #AC917E",
"Y. c #B5937C",
"T. c #BC957C",
"R. c #838282",
"E. c #A58C80",
"W. c #AF9687",
"Q. c #A79288",
"!. c #B09380",
"~. c #B69581",
"^. c #B99883",
"/. c #B49C8D",
"(. c #B39F93",
"). c #B49E90",
"_. c #B89F90",
"`. c #BAA08E",
"'. c #BBA292",
"]. c #BAA394",
"[. c #BDA697",
"{. c #B6A39A",
"}. c #B7A69A",
"|. c #B7A59E",
" X c #B8A69D",
".X c #ABA0A0",
"XX c #B4A9A2",
"oX c #B2AAA6",
"OX c #B4A9A8",
"+X c #B6ADAD",
"@X c #BDAEA8",
"#X c #C1A796",
"$X c #C5A997",
"%X c #C1B5AE",
"&X c #CABCB4",
"*X c #C4BCBC",
"=X c #C6BEBE",
"-X c #CAC0BA",
";X c #C3C1C0",
":X c #CEC3C0",
">X c #CDC9C9",
",X c #D1C9C7",
"<X c #D5CFCF",
"1X c #DFD0C5",
"2X c #D6D2CF",
"3X c #D8D0CB",
"4X c #DDD3CC",
"5X c #DCD4CF",
"6X c #DCD6D3",
"7X c #D9D9D8",
"8X c #E5DCD6",
"9X c #E3DFDF",
"0X c #E6E0DD",
"qX c #E3E0E0",
"wX c #E7E3E1",
"eX c #EFE9E6",
"rX c #F2F0F0",
/* pixels */
"                                                                ",
"                                                                ",
"                                                                ",
"                                                                ",
"                                                                ",
"                        o . . . . . . o                         ",
"                  . 3 N ^ %.w.t.t.e.%.^ N 3 X                   ",
"              ; V q.s.s.s.l.s.c.v.s.l.s.s.s.q.V ;               ",
"          : 1.#Xa.z.C.K.m.$Xg.[.T.M.$Xk.^.B.n.p.~.R.5           ",
"        > ;XrXL.i.I.).1X(.0X&X2X8X-XeXW.5XY.'.i.V.qX>X4         ",
"      2 N.qX9Xx.y.wXoX0XZ.3XA.%X].P.4XS.6XXX7Xf.u.,X<XD.1       ",
"    - $._.<X:Xr.0.~.b.`.=.!.4.J.H.d.U.5./.w.}.9.0. X*X{.#.-     ",
"  + / 8.@X=X|.8.9.h.:.4.5.3.6.5.7.6.3.8.;.6.j.6.7.E.+XOXe.! X   ",
"  y 2.4.+X+XQ.2.2.-.&.[ ( U I H F D F H I Y ) ..=.G..X.Xf.-.t   ",
"+ ` *.>.F.<.| 9 9 9 q u m B Z A D D D A Z M a t 0 i d ,.} X.` X ",
"* s 8 0 m G ` +.@.+.+.+.+.+.O.O.+.O.O.O.+.O.O.O.+.O.o.~ C 0 0 $ ",
"$ G {  . . . . . . . . . . . . . . . . . . . . . . . .{  .{ _ * ",
"O W ] ] ] ] ] ] ] ' ' ' ' ' ' ' ' ' ' ' ' ' ' ' ' ' ' ' ' ' ~ @ ",
"  e Q Q Q Q Q Q Q Q Q Q Q Q Q Q Q Q Q Q Q Q Q Q Q Q Q Q Q Q r   ",
"  O S E E E E E E E E E E E E E E E E E E E E E E E E E E v @   ",
"    % J R R R R R R R R R R R R R R R R R R T T R T T T J =     ",
"      < v P P P P P L L L L L L L L L L L L L K K K K v <       ",
"        % j n n n b b b n b b b b b b b b b b b b b j &         ",
"          O 7 z c x x x c x x x c x x x c x x x z 7 O           ",
"              # 7 h k k l k k k l k k k k k h 7 #               ",
"                  X , 6 w p f g g f p w 6 , X                   ",
"                        o . . . X . . .                         ",
"                                                                ",
"                                                                ",
"                                                                ",
"                                                                ",
"                                                                "
};
