/* XPM */
static char *_abeb6be12574ddba8fcd0541eaa0abefQiImFr02lgT8QG5[] = {
/* columns rows colors chars-per-pixel */
"64 64 209 2 ",
"   c None",
".  c #020100",
"X  c #0B0501",
"o  c #0F0802",
"O  c #130A02",
"+  c #1A0E04",
"@  c #140C08",
"#  c #1E1006",
"$  c #17110D",
"%  c #231205",
"&  c #2A1604",
"*  c #2D1805",
"=  c #24140B",
"-  c #2D190A",
";  c #2A170C",
":  c #341B04",
">  c #391E06",
",  c #351D0C",
"<  c #381F0D",
"1  c #281B13",
"2  c #341D10",
"3  c #3D2007",
"4  c #3B210E",
"5  c #2B211B",
"6  c #3D2412",
"7  c #3B2719",
"8  c #1F1F20",
"9  c #392D26",
"0  c #36312E",
"q  c #373534",
"w  c #2D2D2D",
"e  c #442306",
"r  c #4A2707",
"t  c #44250A",
"y  c #4A270A",
"u  c #4C290B",
"i  c #542D0B",
"p  c #582F0D",
"a  c #5A310F",
"s  c #432611",
"d  c #472812",
"f  c #4C2A13",
"g  c #4D2C18",
"h  c #412B1C",
"j  c #522E14",
"k  c #502F19",
"l  c #563016",
"z  c #5D3312",
"x  c #54321C",
"c  c #5C341A",
"v  c #623612",
"b  c #663814",
"n  c #693A16",
"m  c #613719",
"M  c #65391B",
"N  c #6C3C19",
"B  c #703F1A",
"V  c #442F22",
"C  c #443125",
"Z  c #473327",
"A  c #5C3A22",
"S  c #523827",
"D  c #483D37",
"F  c #513F34",
"G  c #653B20",
"H  c #6B3D21",
"J  c #74411C",
"K  c #564337",
"L  c #69432A",
"P  c #744221",
"I  c #7B4522",
"U  c #7D4926",
"Y  c #7C4C2B",
"T  c #724C33",
"R  c #634735",
"E  c #554B47",
"W  c #5E5C5D",
"Q  c #555251",
"!  c #4B4341",
"~  c #604D41",
"^  c #62554F",
"/  c #675954",
"(  c #775A4A",
")  c #7C7878",
"_  c #736D6A",
"`  c #804721",
"'  c #834A23",
"]  c #844D29",
"[  c #894E29",
"{  c #85512E",
"}  c #8C522D",
"|  c #91542E",
" . c #855433",
".. c #895634",
"X. c #8A5837",
"o. c #84593D",
"O. c #8C5B3B",
"+. c #86573A",
"@. c #935732",
"#. c #965A35",
"$. c #945D3A",
"%. c #9A5E3A",
"&. c #985B36",
"*. c #94603F",
"=. c #9A613D",
"-. c #8A5E42",
";. c #805C46",
":. c #905F40",
">. c #8E6144",
",. c #8D654A",
"<. c #81634F",
"1. c #936344",
"2. c #9D6643",
"3. c #9F6846",
"4. c #91664A",
"5. c #9D6B4B",
"6. c #91684C",
"7. c #866A5A",
"8. c #9E6F51",
"9. c #926E57",
"0. c #9A7156",
"q. c #9A745C",
"w. c #9E795F",
"e. c #977057",
"r. c #A16E4D",
"t. c #A06F51",
"y. c #A57354",
"u. c #A2765A",
"i. c #A87A5D",
"p. c #8B7669",
"a. c #947461",
"s. c #9C7E6B",
"d. c #997B69",
"f. c #8C7B73",
"g. c #887C7A",
"h. c #917E74",
"j. c #816D65",
"k. c #A37C63",
"l. c #AA7F64",
"z. c #9D806E",
"x. c #988275",
"c. c #AC846A",
"v. c #A78068",
"b. c #B1896F",
"n. c #AC8972",
"m. c #A68B7B",
"M. c #AB8E7C",
"N. c #A68572",
"B. c #B38C74",
"V. c #B18E79",
"C. c #B5927B",
"Z. c #807F80",
"A. c #8A8586",
"S. c #998B87",
"D. c #9C9291",
"F. c #AB9284",
"G. c #A69289",
"H. c #AB968A",
"J. c #AA9789",
"K. c #B29684",
"L. c #B59B8C",
"P. c #BB9D8B",
"I. c #BA9883",
"U. c #A69A96",
"Y. c #B39F93",
"T. c #B09F98",
"R. c #A28C82",
"E. c #A6A19F",
"W. c #B5A295",
"Q. c #BBA292",
"!. c #B5A69D",
"~. c #BAA599",
"^. c #BEAA9D",
"/. c #ABA4A4",
"(. c #ABAAAA",
"). c #B0A5A4",
"_. c #B6A9A5",
"`. c #BCADA4",
"'. c #B5ABAB",
"]. c #B8AFAF",
"[. c #BEB1A9",
"{. c #BDB3B2",
"}. c #B2B0B0",
"|. c #C5AB9A",
" X c #C2A694",
".X c #C1AEA3",
"XX c #C3B1A5",
"oX c #CAB3A4",
"OX c #C2B3AA",
"+X c #C8B7AC",
"@X c #C9B8AD",
"#X c #C5BAB4",
"$X c #C5BCBB",
"%X c #C6B9B3",
"&X c #CCC2BD",
"*X c #D3C4BB",
"=X c #CCC6C3",
"-X c #CAC6C6",
";X c #D1C6C0",
":X c #D4CAC3",
">X c #D3CDCB",
",X c #D9CEC6",
"<X c #DBD1CC",
"1X c #D8D4D4",
"2X c #DAD8D8",
"3X c #E0D3CD",
"4X c #E0DDDE",
"5X c #E2DBD7",
"6X c #E7E6E7",
/* pixels */
"                                                                                                                                ",
"                                                                                                                                ",
"                                                                                                                                ",
"                                                                                                                                ",
"                                                                                                                                ",
"                                                                                                                                ",
"                                                                                                                                ",
"                                                                                                                                ",
"                                                                                                                                ",
"                                                                                                                                ",
"                                                        . . . . . . . .                                                         ",
"                                              = = = = = ; ; ; ; ; ; ; ; = = = = =                                               ",
"                                      . O = , s g x c M G H H H H H H G M c x g s , = O .                                       ",
"                                  = = ; , s g c H P U ] [ } } | | } } [ ] U P H c f s 2 ; = =                                   ",
"                            . O - d c H P U U ] [ [ } } | | @.#.#.@.| | } } [ [ ' U U P H c d , O .                             ",
"                          0 0 C x M U } &.=.=.%.&.%.3.2.@.#.3.r.r.2.&.%.3.2.&.#.=.2.%.#...Y G x 9 9 q                           ",
"                      8 Q _ f.a.+.] } &.5.y.i.y.3.t.B.c.=.*.v.C.B.i.5.8.b.c.2.=.i.v.y.2.=.@.[  .7.p._ W w                       ",
"                    q Q Z.U.W.B.3.@.=.r.k.n.C.B.k.n.|. Xl.k.Q.XX|.P.n.V.|. Xi.u.K.P.c.u.u.5.#.=.v.F.U.A.W D                     ",
"                . 0 ) (.-X&XQ.l.=.&.y.c.M.P.oXoXL.W.*X:X.X^.#X:X,X*XXX+X<X*XL.K.+X@XI.B.V.v.*.#.r.V.%X-X}.A.q X                 ",
"              @ 1 E E.2X6X3XI.5.@.2.B.Q.W.`.:X*X~.!.,X<X%XOX&X>X,X:X%X&X5X<XW.Y.*X;X^.L.^.L.5.} &.c.*X4X2X/.Q 5 $               ",
"            X 1 K p.#X6X6X*Xc.$.} 8.oX;X[.{.<X;XJ.G.&X&XH.F.`.#X+X^.Y.`.,X*XG.G.&X,X[.`.=XXX0.{ { u.OX1X1X{.h.~ 5 X             ",
"          O = V <.K.;X4X4X@Xu.{ [ 8.oX;X!.!.&X@Xz.d.`.`.s.a.H.~.L.M.z.m.OX`.s.s.XX#XY.W.&X[.e.] ] 5.~.=X>X$XL.7.C % O           ",
"        . % d T s.~.=X1X>X.X8.] ' 1.K.L.s.z.Q.L.,.,.M.M.4.-.s.M.n.k.,.9.F.M.,.6.K.L.q.q.W.L.4.' ' 1.K.%X$X#X!.z.T f % .         ",
"        + , M O.M..X&X-X=XY.4.' ' O.u.k.>.,.k.w. . .0.0...{ 6.q.0.1. .+.q.0.....w.w...X.v.v.O.' ' :.m.!.{.{._.M.-.M , +         ",
"      + 6 c J 1.F.OX$X$XOXF.1.' ' { *.>. .{ X.X.] ] ....[ ]  .....{ ] ] ....[ [ X...[ { >.>.{ ' ' O.s.Y._.].'.F.>.P c 6 +       ",
"    X = x J I 1.H.{.#X{._.m.-.' ' ] { { U I I I I I P J P P J J J P P J J J P P P J I U Y Y U I ` X.d.G.).'.'.G.4.U J l = X     ",
"    = 6 M I I >.J.{.{.'.T.N.O.` ' ' ' ' I I J B N N M M M m m c c c c c c c c m m m M N H P P P I  .a.R.T.)./.G.6.] I M 4 =     ",
"  + < j J ' I -.S./.U.D.x.7.T M M M M M M M m c c c l l j j j j j j j j j j j j j j l l c c c m M L ( j.g.A.S.f.;.Y U N j < +   ",
". # f M J I U o.f.A.) _ ^ K h < 4 4 4 4 4 4 s d d f f f f f f f j j j j j j j f f f f f d d s 6 4 7 V D ! Q W ^ R L P J M f # . ",
". # f m M M M L / / ^ E F C 6 , , , , 4 4 4 s d f f f j j l l l l l l l l l l l l j j f f d s 4 4 4 6 7 9 Z D F S x c c z d + . ",
". + 4 d 4 , 4 7 Z S S A A M m m m m m m m M M M M M M M N N N N N N N N N N N N N M M M M M M M m m m M M G A c k d 6 4 4 - O . ",
"X + , s < , , 4 t f l m M B J J J J J J J J J J J J J J J J J J J J J J J J J J J J J J J J J J J J J J J J N m l f 4 < < - O . ",
". + 4 j l z z m m b N N N B J J J J J J J J J J J J J J J J J J J J J J J J J J J J J J J J J J J J J J J B N N M M m z l d # X ",
". + d m N J J J J B B B B B B B B B B B B B B B B B B B B B B N B B B B B B B N B B B B B B B B N N N B B B B B B B B B N j % . ",
". + f M N B B B N N N N N N N N N N N N N N N N N N N N N N N N N N N N N N N N N N N N N N N N N N N N N N N N N N N N N j # . ",
". + t z N N N N N N N N N N N N N N N N N N N N N N N N N N N N N N N N N N N N N N N N N N N N N N N N N N N N N N N N z d + . ",
"  O , y m N N N N N N N N N N N N N N N N N N N N N N N N N N N N N N N N N N N N N N N N N N N N N N N N N N N N N N v y , O . ",
"    # , j b N N N b b b b b b b b b b N N N N N N N N N N b b b N N N N N b b b N N N b N N N N N b N N N N N N N N b j , %     ",
"    X % t z m b b b b b b b b b v v v b b b b b b b b b b b b v b b b b b b b v b b v v v b b b v v v b b b b b b v z y % X     ",
"      O , y l v v v v v v v v v v v v v v v v v v v v v v v v v v v v v v v v v v v v v v v v v v v v v v v v v v l y , O .     ",
"        + * u z v v v v v v v v v v v v v v v v v v v v v v v v v v v v v v v v v v v v v v v v v v v v v v v v z u - + o       ",
"        . + < u l z v v v z z v v v v v v v v v v v v v v v v v v v v v v v v v v v v z z z z z z z z z z z z l u < + X         ",
"          o + - y l z z z z z z z z z z z z z z z z z z z z z z z z z z z z z z a a a z z z z z z z z z z z l y - + o           ",
"            X + , y i a a a a a a a a a a a a a a a a a a a a a a a a a a a a a a a a a a a a a a a a a a i y , + X             ",
"              o + & e i p a a a a a a a a a a a a a a a a a a a a a a a a a a a a a a a a a a a a a a i i e & + o               ",
"                . O * 3 y i i p p p i i i i i i i i i i i i i i i i i i i i i i i i i i i i i i i i u e 3 * O .                 ",
"                    O + * 3 u i i i i i i i i i i i i i i i i i i i i i i i i i i i i i i i i i i u 3 * + O                     ",
"                      X + & > e e u u i i i i i i i i i i i i i i i i i i i i i i i i i i u u e e : & + X                       ",
"                          O O # * > e u i i i i i i i i i i i i i i i i i i i i i i i i u e > * # O O                           ",
"                            . X + & : > 3 e e e e r r r u u u u u u u u r r r e e e e 3 > : & + X .                             ",
"                                  O O O + % & : : > e e e e r r r r e e e e > : : & % + O O O                                   ",
"                                    . . X O + % & & * : : : : : : : : : : * & & % + O X . .                                     ",
"                                              O O O O O O O O O O O O O O O O O O                                               ",
"                                                        . . . . . . . .                                                         ",
"                                                                                                                                ",
"                                                                                                                                ",
"                                                                                                                                ",
"                                                                                                                                ",
"                                                                                                                                ",
"                                                                                                                                ",
"                                                                                                                                ",
"                                                                                                                                ",
"                                                                                                                                ",
"                                                                                                                                "
};
