/* XPM */
static char *_83f4763c515415af7a396f1034a06f2clJhnOAwsqgTt0gv[] = {
/* columns rows colors chars-per-pixel */
"64 64 209 2 ",
"   c None",
".  c #6C1C00",
"X  c #641802",
"o  c #6D240B",
"O  c #732202",
"+  c #7A2601",
"@  c #7C2905",
"#  c #752B0C",
"$  c #7B2E0D",
"%  c #752708",
"&  c #7E320E",
"*  c #6E2C16",
"=  c #772E16",
"-  c #743213",
";  c #7B3917",
":  c #7F3E28",
">  c #7F4430",
",  c #9E1B0B",
"<  c #AE0E0E",
"1  c #BA0F0F",
"2  c #B00F0F",
"3  c #AD1811",
"4  c #B51211",
"5  c #BC1313",
"6  c #AF100F",
"7  c #812805",
"8  c #922209",
"9  c #83340D",
"0  c #893B0F",
"q  c #86390F",
"w  c #953F09",
"e  c #963C09",
"r  c #8C3E11",
"t  c #843A13",
"y  c #942910",
"u  c #A53B15",
"i  c #B9351C",
"p  c #AB2C16",
"a  c #BB3A3B",
"s  c #BC3833",
"d  c #C31515",
"f  c #C81717",
"g  c #CC1919",
"h  c #CB1718",
"j  c #D21B1C",
"k  c #D91E1E",
"l  c #D71F20",
"z  c #D42424",
"x  c #DC2424",
"c  c #D32C26",
"v  c #DC2728",
"b  c #DB2A29",
"n  c #D32929",
"m  c #C33B34",
"M  c #C93D36",
"N  c #CD3F38",
"B  c #CF3228",
"V  c #E12525",
"C  c #E32C2C",
"Z  c #E42728",
"A  c #E73132",
"S  c #97400A",
"D  c #9C440A",
"F  c #8C4319",
"G  c #89451B",
"H  c #944312",
"J  c #9C4915",
"K  c #944A1B",
"L  c #994E1C",
"P  c #964616",
"I  c #9D511D",
"U  c #A44A0D",
"Y  c #A94D0C",
"T  c #A14D16",
"R  c #A55116",
"E  c #AB5515",
"W  c #A2551D",
"Q  c #AD591C",
"!  c #B15614",
"~  c #B25C1D",
"^  c #82442D",
"/  c #8A4E22",
"(  c #945224",
")  c #9D5C2A",
"_  c #9A5726",
"`  c #844934",
"'  c #8F512D",
"]  c #A55921",
"[  c #AB5D21",
"{  c #A25F29",
"}  c #A55923",
"|  c #A34735",
" . c #9F602D",
".. c #A3622D",
"X. c #AA632C",
"o. c #B46223",
"O. c #B56629",
"+. c #B9672A",
"@. c #B6692B",
"#. c #B9692C",
"$. c #A46631",
"%. c #A96731",
"&. c #A76932",
"*. c #AA6C35",
"=. c #AD6E38",
"-. c #A46B3F",
";. c #B16E33",
":. c #BB6D32",
">. c #B06B3B",
",. c #AE7037",
"<. c #AE7139",
"1. c #B37036",
"2. c #BD7136",
"3. c #B2743B",
"4. c #BE733A",
"5. c #B6783F",
"6. c #BA7A3F",
"7. c #D5413D",
"8. c #C24C3B",
"9. c #C0773F",
"0. c #8E5845",
"q. c #945C46",
"w. c #995D44",
"e. c #B75B4A",
"r. c #95695B",
"t. c #956753",
"y. c #9C6846",
"u. c #AA6F4A",
"i. c #AB6847",
"p. c #AE714B",
"a. c #B67943",
"s. c #BA7C42",
"d. c #B2744B",
"f. c #B67A47",
"g. c #AD7D57",
"h. c #BF7E68",
"j. c #A47F73",
"k. c #BC7A75",
"l. c #DB4545",
"z. c #D64744",
"x. c #D15F58",
"c. c #C17B43",
"v. c #C27F49",
"b. c #C27F69",
"n. c #C07E67",
"m. c #CC7B7C",
"M. c #D47C7C",
"N. c #D1706A",
"B. c #BE8046",
"V. c #BE824A",
"C. c #BA8555",
"Z. c #BE8B5B",
"A. c #B78253",
"S. c #AC866B",
"D. c #AB8569",
"F. c #B88B65",
"G. c #BC936F",
"H. c #BB8B71",
"J. c #BE9470",
"K. c #BF9975",
"L. c #C08145",
"P. c #C2844C",
"I. c #C4884F",
"U. c #C38551",
"Y. c #C58A54",
"T. c #C38D5C",
"R. c #C98E5B",
"E. c #C98C57",
"W. c #C6905F",
"Q. c #C9915D",
"!. c #C6816B",
"~. c #C28F63",
"^. c #CA9466",
"/. c #D19B6D",
"(. c #C39A75",
"). c #C68B75",
"_. c #BC8A8B",
"`. c #B79986",
"'. c #B39D95",
"]. c #AC988C",
"[. c #BDA38C",
"{. c #ADA19B",
"}. c #B9A59C",
"|. c #BCACA5",
" X c #B8ABA5",
".X c #BBB3AC",
"XX c #BBBCBD",
"oX c #BAB6B5",
"OX c #C38A88",
"+X c #C79586",
"@X c #C89393",
"#X c #D88182",
"$X c #C0A48E",
"%X c #C1A790",
"&X c #C2A891",
"*X c #C6A89E",
"=X c #C8A3A3",
"-X c #D3ACAC",
";X c #C6B3A6",
":X c #C3BCBC",
">X c #C5BAB9",
",X c #BDBFC0",
"<X c #C3C3C3",
"1X c #CBC5C5",
"2X c #CBCCCC",
"3X c #C9C8C8",
"4X c #CECFD0",
"5X c #D1D2D3",
"6X c #D2C7C8",
/* pixels */
"                                                                                                                                ",
"                                                                                                                                ",
"                                              o.:.4.4.4.4.4.4.2.2.2.4.L.Q.^.E.P.c.2.#.#.#.:.4.4.4.4.2.2.2.2.2.2.4.4.4.:.o.      ",
"                                            ~ o.+.#.#.#.#.+.+.#.:.4.P.E.R.R.U.P.v.s.4.4.4.c.v.v.v.c.c.c.9.4.4.2.:.:.:.#.o.~     ",
"                                        ~ o.o.o.~ ! ! ! ! ! E ~ +.c.^./.R.I.P.P.U.U.E.E.R.R.R.R.R.E.E.U.P.v.s.4.:.@.o.o.@.@.~ E ",
"                                        ~ ~ o.~ E E [ X.X.X.[ X.3.U././.E.L.L.P.U.E.Q.Q.Q.Q.Q.Q.T.E.E.E.U.P.s.s.4.:.#.+.#.@.~ E ",
"                                        Q ~ E E R ..g.D.S.S.D.D.F.~.^.Q.I.L.L.L.P.P.P.P.P.P.P.P.P.V.V.V.B.B.V.P.U.U.V.s.1.@.~ E ",
"                                        E E Y E *.g.`.}.{.{.{.'.`.(.W.U.P.L.L.L.B.B.s.s.s.s.s.s.s.s.s.s.s.s.V.V.Y.Y.Y.V.3.@.~ E ",
"                                        Y Y Y X.H.}.>X:XXXoXoX X$X(.W.U.P.L.B.B.B.B.B.B.s.s.s.s.s.s.s.s.s.s.s.f.s.f.f.f.5.;.[ E ",
"                                        U Y Y >.%X1X2X2X3X<XXX.X&X(.W.U.L.B.B.B.B.B.B.B.s.s.s.s.s.s.s.s.s.s.s.s.s.5.5.5.a.1.[ E ",
"                                        U Y R d.;X4X2X3X3X<XXX.X&X(.W.U.L.L.B.B.B.s.s.s.s.s.s.s.s.s.s.s.s.s.s.5.5.5.5.5.5.1.[ E ",
"                                        U U R d.;X5X2X3X3X<XXX.X&X(.W.I.L.B.s.s.s.s.s.s.s.s.s.s.s.s.s.s.s.s.s.5.5.5.5.5.5.1.[ E ",
"                                        D U R d.;X5X2X3X3X<XXX.X&X(.W.P.L.B.s.s.B.s.s.s.s.s.s.s.s.s.s.s.s.s.s.5.5.5.5.5.5.1.[ E ",
"                                        D U R d.;X5X2X3X3X<XXX.X&X(.T.P.L.s.B.s.s.s.s.s.s.s.s.s.s.s.s.s.a.5.5.5.5.5.3.5.5.1.[ R ",
"                                        D U R d.;X5X2X3X3X,XXX.X%X(.W.I.L.s.s.s.s.s.s.s.s.s.s.s.s.s.s.s.a.5.5.5.5.3.3.3.5.1.[ R ",
"                                        D U T d.;X5X2X3X3X,XXX.X&X(.W.P.B.s.s.s.s.s.s.s.s.s.s.s.s.s.s.5.5.5.5.5.3.3.3.3.5.;.[ R ",
"                                        D D T p.;X5X2X3X3X<XXX.X%X(.T.P.B.s.s.s.s.s.s.s.s.s.s.s.s.s.s.5.s.5.5.5.3.3.3.3.3.;.] R ",
"                                        D D T p.;X5X2X3X3X<XXX.X%X(.T.P.B.s.s.s.s.s.s.s.s.s.s.s.5.5.5.5.5.5.5.5.3.3.3.3.3.*.] T ",
"                                        D D T p.;X5X2X3X3X<XXX.X%X(.T.P.B.s.s.s.s.s.s.s.s.s.s.5.5.5.5.5.5.3.5.5.3.3.3.3.3.*.] T ",
"                                        D D J p.;X5X2X3X3X<XXX.X%X(.T.P.s.s.s.s.s.s.s.s.s.s.a.5.5.5.5.5.5.3.5.3.3.3.3.3.3.*.] T ",
"                                        S D J u.;X5X2X3X3X<XXX.X%X(.T.P.s.s.s.s.s.s.s.s.5.5.5.5.5.5.5.3.3.3.3.3.3.3.3.3.3.*.] T ",
"                                        w D J u.;X5X2X3X3X<XXX.X%X(.T.P.f.s.s.s.s.s.s.s.5.5.5.5.5.5.5.3.3.3.3.3.3.3.3.3.3.*.] J ",
"                                        w S J u.;X5X2X3X3X,XXX.X$X(.T.V.s.s.s.s.s.s.s.a.5.5.5.5.5.5.3.3.3.3.3.3.3.3.3.3.3.*.] J ",
"                                C       w S J u.;X5X4X3X<X,XXX.X$X(.T.V.f.s.s.5.s.s.s.5.3.3.5.5.5.3.3.3.3.3.3.3.3.3.3.3.3.*.W J ",
"                            A A C Z     w w P u.;X5X4X3X3X<XXX.X$X(.T.V.f.s.s.s.s.s.5.5.5.5.5.5.3.3.3.3.3.3.3.3.3.3.3.3.3.%.W J ",
"                        C C C C Z V     e e J i.*X6X1X:X>X>XoX|.$X(.T.V.s.a.s.s.s.5.5.5.5.5.5.5.3.3.3.3.3.3.3.3.3.3.3.3.3.%.W J ",
"                      C C C Z Z V x     u u u e.+X-X-X=X=X=X=X*X$X(.T.V.s.s.s.s.5.5.5.5.5.3.3.3.3.3.3.3.3.3.3.3.3.3.3.3.3.%.W J ",
"                    v v C x x k x x c B i i i 8.N.#XM.M.M.m.m.OX+X(.T.V.s.5.3.3.3.3.3.5.3.3.3.3.3.3.3.3.3.3.3.3.3.<.3.3.<.%.I J ",
"                b b x x x k k k k x b b c c B B 7.l.l.l.l.l.z.x.).(.T.V.s.3.;.;.;.1.3.5.3.3.3.3.3.3.3.3.3.3.3.3.3.3.3.3.<.%.I H ",
"              b b b x k k k k k k x x v v v v x x x x x x x v z.!.(.Z.V.s.1.{ ] } X.3.5.3.3.3.3.3.3.3.3.3.3.3.3.3.3.3.<.<.%.I H ",
"          b b x z k k k k k k k k k k z l l l k k k k k k k k 7.!.(.Z.V.s.%.K 0 r L *.5.3.3.3.3.3.3.3.3.3.3.3.3.3.3.<.<.<.X.I H ",
"        z z z z j j j j j j j j j j j j j j j j j j j j j j j N !.K.Z.V.s.X.r @ 9 K %.5.3.3.3.3.3.3.3.3.3.3.3.3.3.<.<.<.<.X.I H ",
"    n z z z j j j j j j j j j j j j j j j j j j j j j j j j g M !.(.Z.V.s.%.F & t K %.3.3.3.3.3.3.3.3.3.<.<.3.3.<.<.<.<.<...L H ",
"    z z z j g g g g g g g g g g g g g g g g g g g g g g g g g M b.(.Z.V.s.*.( F K _ *.3.3.3.3.3.3.3.3.3.<.<.<.<.<.<.=.<.,.X.L H ",
"g g g g g g f f f f f f f f f f f f f f f f f f f f f f f h f M b.(.Z.s.a.3.*.%.%.*.3.3.3.3.3.3.3.3.3.3.<.<.<.<.<.=.*.*.,.X.L H ",
"g f f f f f f f f f f f f f f f f f f f f f f f f f f f f f f m b.K.Z.s.a.3.3.5.3.3.3.3.3.3.3.3.3.3.3.<.<.<.<.<.=.*.*.*.*...L H ",
"    f d d d d d d d d d d d d d d d d d d d d d d d d d d d d m b.K.Z.f.a.3.3.3.3.3.3.3.3.3.3.3.3.3.3.<.<.<.<.=.*.*.,.<.<...K r ",
"        d d d d d d d d d d d d d d d d d d d d d d d d d d d m b.K.Z.f.5.3.3.3.3.3.3.3.3.3.3.3.<.<.<.<.<.<.=.*.*.*.*.,.*...K r ",
"          5 5 d d d d d d d d d d d d d d d d d d d d d d d d m n.K.Z.f.5.3.3.3.3.3.3.3.3.3.3.<.<.<.<.<.<.=.,.,.*.*.*.*.*...K r ",
"            5 5 5 5 5 5 5 5 5 5 5 5 5 5 5 5 5 5 5 5 5 5 5 5 5 s h.K.Z.s.5.3.3.3.3.3.3.3.3.3.<.<.<.<.<.<.<.*.=.*.*.*.*.*.*...K r ",
"                5 5 5 5 5 5 5 5 5 5 5 5 5 5 5 5 5 1 1 1 1 5 5 s h.K.Z.f.3.3.3.3.3.3.3.3.<.<.<.<.3.<.<.<.*.*.=.*.*.*.*.*.*...K r ",
"                  5 5 4 4 4 4 4 5 4 4 4 3 3 3 p s a a a a a a e.H.K.Z.f.3.3.3.3.3.3.3.3.<.<.<.*.<.<.<.*.*.*.*.*.*.*.*.*.*...K 0 ",
"                      4 4 4 4 4 4 4 4 , 8 8 y | k.@X@XOXOX_._._.`.J.C.f.3.3.3.3.3.3.3.<.<.<.<.<.<.<.,.*.*.*.*.*.*.*.*.*.*...K 0 ",
"                        4 4 4 4 4 4     7 7 9 w.}.1X1X:X>X>XoX|.[.J.C.f.3.3.3.3.3.3.3.<.<.<.<.<.<.<.*.*.*.*.*.*.*.*.%.*.*...K 0 ",
"                            < 2 2 6     + @ 9 w.|.5X2X1X<X:XXX.X[.J.C.f.3.3.3.3.3.3.3.<.<.<.<.<.*.*.*.*.*.*.*.*.*.%.%.%.*...K q ",
"                              < <       + @ 9 q.|.5X2X3X3X<XXX.X[.J.C.f.3.3.3.3.3.3.<.<.<.*.*.*.*.*.*.*.*.*.*.*.%.%.%.%.%.{ F 9 ",
"                                        + @ & q.|.5X2X3X3X<XXX.X[.J.C.f.3.3.3.3.<.<.<.<.<.*.*.*.*.*.*.*.*.*.*.*.*.*.%.*.%.{ F 9 ",
"                                        O @ & q.|.5X2X3X3X,XXX.X[.J.C.f.3.3.<.<.<.<.,.*.*.*.*.*.*.*.*.*.*.*.*.*.*.%.%.*.%.) F 9 ",
"                                        O + $ q.|.5X4X3X3X<XXX.X[.G.C.f.3.<.<.<.<.,.,.*.,.*.*.*.*.*.*.*.*.%.%.%.*.%.%.*.*.) F 9 ",
"                                        O O $ q.|.5X4X3X3X<XXX.X[.G.C.f.3.<.<.<.<.<.,.*.*.*.*.*.*.*.*.*.*.%.%.%.%.%.*.*.*.) F 9 ",
"                                        O O $ q.|.5X2X3X3X<XXX.X[.G.C.f.3.<.<.=.<.<.*.*.*.*.*.*.*.*.*.%.*.*.*.%.%.%.%.%.*.) G 9 ",
"                                        O O $ q.|.5X2X3X3X<XXX.X[.G.C.a.3.<.*.*.<.*.*.*.*.*.*.*.*.*.*.%.%.%.%.%.%.&.&.%.*.) G & ",
"                                        . O # q. X5X2X3X3X<XXX.X[.G.C.f.3.*.*.*.*.*.*.*.*.*.*.*.*.*.*.%.%.%.%.*.%.&.&.%.%.) G & ",
"                                        . O # 0. X5X2X3X3X,XXX.X[.G.C.f.<.*.*.*.*.*.*.*.*.*.*.*.*.*.%.%.%.&.&.&.&.&.&.%.%.) F & ",
"                                        . O % 0.|.5X2X3X3X<XXX.X[.G.C.a.<.*.*.*.*.*.*.*.*.*.*.*.*.%.%.%.%.&.&.&.&.&.&.%.%.) r $ ",
"                                        . . O ` '.3X2X3X3X<XXX.X[.G.C.a.<.*.*.*.*.*.*.*.*.%.*.*.&.%.%.*.*.%.%.%.%.%.%.%.&._ t % ",
"                                        . . . : j.|.1X2X3X<X,X.X`.F.A.a.<.*.*.*.*.*.*.*.*.%.*.%.%.%.%.%.%.%.%.%.%.%.%.&...( & . ",
"                                        . . . = 0.j.'. X X X{.].S.g.f.a.<.*.*.*.*.*.*.%.%.%.*.*.%.%.%.&.&.$.$........._ ( G # . ",
"                                        . . . O = ^ 0.r.r.r.r.t.y.-.<.<.*.*.*.*.*.*.*.%.%.%.%.%.*.*.%.&.....) _ _ ( K G & # O   ",
"                                          . . . . o = : ^ ^ > ^ ' ) *.*.*.*.*.*.*.%.*.%.&.&.$....... .) _ _ ( K G G t & O .     ",
"                                                X X o * * * * - ; ( $.*.*.*.*.*.*.*.*.&.$.) ( / G G ; ; ; - - - - # o           ",
"                                                                      *.*.*.*.*.                                                ",
"                                                                                                                                ",
"                                                                                                                                "
};
