/* XPM */
static char *out[] = {
/* columns rows colors chars-per-pixel */
"32 32 214 2 ",
"   c None",
".  c #6D1C00",
"X  c #6E1C00",
"o  c #6E1D00",
"O  c #6E1E00",
"+  c #701F00",
"@  c #712102",
"#  c #752301",
"$  c #7A2702",
"%  c #762B0F",
"&  c #7D2F0C",
"*  c #7C3318",
"=  c #7E3518",
"-  c #AF1010",
";  c #B01010",
":  c #B41111",
">  c #B51313",
",  c #B91313",
"<  c #BB1313",
"1  c #BF1515",
"2  c #BF1A1A",
"3  c #842705",
"4  c #802D05",
"5  c #87370D",
"6  c #943C08",
"7  c #963F09",
"8  c #803410",
"9  c #813510",
"0  c #863710",
"q  c #873F17",
"w  c #883A11",
"e  c #8B3E12",
"r  c #813719",
"t  c #833919",
"y  c #853B19",
"u  c #8C3819",
"i  c #AA3512",
"p  c #B92020",
"a  c #C01515",
"s  c #C41616",
"d  c #C51818",
"f  c #C41B1B",
"g  c #CA1818",
"h  c #CA1A1A",
"j  c #CF1A1A",
"k  c #C91D1D",
"l  c #CC1E1E",
"z  c #CE1F1F",
"x  c #D41C1C",
"c  c #DA1E1E",
"v  c #D32121",
"b  c #DB2222",
"n  c #DF2020",
"m  c #D62B2B",
"M  c #D92828",
"N  c #DA2B2B",
"B  c #DE2C2C",
"V  c #DC3232",
"C  c #E02323",
"Z  c #E62727",
"A  c #E22C2C",
"S  c #E32E2E",
"D  c #E03030",
"F  c #EA3333",
"G  c #E93434",
"H  c #994109",
"J  c #9C430A",
"K  c #9E450A",
"L  c #8B421A",
"P  c #904013",
"I  c #934313",
"U  c #984814",
"Y  c #9B4A15",
"T  c #914C1F",
"R  c #9E4E18",
"E  c #9B4D1E",
"W  c #9E501F",
"Q  c #A2480B",
"!  c #A54B0C",
"~  c #A84D0D",
"^  c #AB4F0D",
"/  c #AD510D",
"(  c #A25018",
")  c #A45219",
"_  c #A6541A",
"`  c #AA5619",
"'  c #B05816",
"]  c #B35B17",
"[  c #B0581A",
"{  c #B0591A",
"}  c #B05D1C",
"|  c #B55F1E",
" . c #995626",
".. c #9B5A28",
"X. c #834530",
"o. c #854D3A",
"O. c #88503D",
"+. c #9A5D33",
"@. c #AF4122",
"#. c #A25220",
"$. c #A45420",
"%. c #A65621",
"&. c #A95820",
"*. c #A45C28",
"=. c #A0602C",
"-. c #AE662C",
";. c #B56021",
":. c #B66629",
">. c #B76A2A",
",. c #A76932",
"<. c #A86A33",
"1. c #A96B33",
"2. c #AE6930",
"3. c #AA6C34",
"4. c #AA6C35",
"5. c #AB6D35",
"6. c #AB6D36",
"7. c #AB6E36",
"8. c #AC6E35",
"9. c #AC6E36",
"0. c #AC6E37",
"q. c #AD6F37",
"w. c #B46D30",
"e. c #B96A30",
"r. c #BC6E33",
"t. c #AE7037",
"y. c #AE7038",
"u. c #AF7139",
"i. c #BB7134",
"p. c #BE7036",
"a. c #BF7137",
"s. c #BF7237",
"d. c #B07239",
"f. c #B0723A",
"g. c #B1733A",
"h. c #B1733B",
"j. c #B2743B",
"k. c #B3753C",
"l. c #B4763D",
"z. c #B5773D",
"x. c #B5773E",
"c. c #BE7239",
"v. c #BF733A",
"b. c #B6783E",
"n. c #B6783F",
"m. c #B7793F",
"M. c #C07239",
"N. c #C0743B",
"B. c #C0763D",
"V. c #B87A40",
"C. c #B97B41",
"Z. c #BE7841",
"A. c #BA7C41",
"S. c #BA7C42",
"D. c #BB7D42",
"F. c #BC7E43",
"G. c #BD7F44",
"H. c #B67C48",
"J. c #B77D49",
"K. c #B97E4A",
"L. c #C17F43",
"P. c #BE8045",
"I. c #BF8146",
"U. c #BA804B",
"Y. c #BC814C",
"T. c #BD834E",
"R. c #BE844E",
"E. c #B48E6C",
"W. c #BE9B7D",
"Q. c #BF9C7E",
"!. c #C18246",
"~. c #C2854B",
"^. c #C3854B",
"/. c #C0854F",
"(. c #C18751",
"). c #C68754",
"_. c #C38852",
"`. c #C58A53",
"'. c #C68C55",
"]. c #C88852",
"[. c #C38B58",
"{. c #C78E59",
"}. c #C68F5E",
"|. c #C88E59",
" X c #C88E5D",
".X c #CB9464",
"XX c #CF9565",
"oX c #CC9665",
"OX c #C09673",
"+X c #C09D7F",
"@X c #AB8D82",
"#X c #AF9583",
"$X c #A79488",
"%X c #AD9B8F",
"&X c #BAAFAF",
"*X c gray73",
"=X c #C19E80",
"-X c #C29F81",
";X c #CC9393",
":X c #C29898",
">X c #D29999",
",X c #D69D9D",
"<X c #C3A081",
"1X c #C3A082",
"2X c #C4A182",
"3X c #C5A283",
"4X c #D9A981",
"5X c #C2B0B0",
"6X c #C9B7B7",
"7X c #C6BBB4",
"8X c #CEBCBC",
"9X c #C3C3C3",
"0X c #CBCBCB",
"qX c gray82",
/* pixels */
"                                                                ",
"                      | M.M.M.a.p.L.XX].B.>.r.B.N.c.s.s.v.c.]   ",
"                    ;.:./ / / ^ i.4X^.~.{.oXoXoX.X X).Z.:.} e.' ",
"                    { ^ *.#X%X$XOX|.!.!.I.P.P.G.F.F.D./.}.[.w.[ ",
"                    ~ ~ 7X0X9X*X3X'.!.I.P.P.G.F.D.D.S.C.C.V.m.` ",
"                    ! &.qX0X9X*X3X'.I.P.P.G.F.D.D.S.C.V.V.m.n.` ",
"                    Q &.qX0X9X*X3X`.P.G.G.F.D.D.S.C.V.V.m.n.b.` ",
"                    Q %.qX0X9X*X2X`.G.G.F.D.D.S.C.V.V.m.n.x.z._ ",
"                    K $.qX0X9X*X2X_.G.F.D.S.A.C.V.V.m.b.x.z.l.) ",
"                    J #.qX0X9X*X2X_.F.D.S.A.C.V.m.m.b.x.z.l.k.( ",
"                    H W qX0X9X*X1X_.D.S.C.C.V.m.m.b.x.z.l.k.j.( ",
"                F   7 W qX0X9X*X<X(.S.C.C.V.m.m.b.x.l.l.k.j.j.R ",
"              G Z   6 E qX0X9X*X-X(.C.C.V.m.n.b.x.l.l.k.j.j.g.Y ",
"          S A n C   i @.,X>X;X:X-X/.V.V.m.n.b.x.l.l.k.j.h.g.f.Y ",
"        D b c c b B B B B B B V -X/.V.-.2.b.z.l.k.k.j.h.g.d.u.U ",
"    M N x x x x x x x x x x x v =XR.b.4 5 z.l.k.k.j.h.g.d.u.y.U ",
"  m v j j j j j j j j j j j j z =XR.b.8 L l.k.k.j.g.f.d.u.y.t.I ",
"l h g g g g g g g g g g g g g k =XT.x.z.l.k.j.j.g.f.d.u.y.q.q.I ",
"  d s s s s s s s s s s s s s f +XY.z.l.k.j.j.g.f.d.u.y.q.q.9.P ",
"      a 1 1 1 1 1 1 1 1 1 1 1 2 +XY.l.k.j.j.g.f.u.u.y.q.q.9.5.P ",
"        < , , , , , , , , , , p +XY.k.j.j.g.f.u.u.y.q.0.9.5.3.e ",
"            : : >   3 u 8X6X5X&XQ.U.j.h.g.f.u.u.y.q.9.9.5.3.3.e ",
"              ; -   $ y qX0X9X*XQ.U.h.g.d.u.y.y.q.9.9.5.3.1.1.w ",
"                    $ t qX0X9X*XQ.K.g.d.u.y.y.q.9.9.5.3.1.1.<.0 ",
"                    # r qX0X9X*XW.K.d.u.y.t.q.9.6.5.3.1.1.<.<.0 ",
"                    # = qX0X9X*XW.J.u.y.q.q.9.6.5.3.1.1.<.<.<.9 ",
"                    + * qX0X9X*XW.J.y.q.q.9.6.5.3.1.<.<.<.<.<.9 ",
"                    + % qX0X9X*XW.H.q.q.9.5.3.3.1.<.<.<.<.<.<.& ",
"                    X . @X0X9X*XE.J.0.9.5.3.3.1.<.<.<.<.<.<...O ",
"                    o . . X.O.o.+.y.9.5.3.3.1.<.<.,.=. .T q @   ",
"                                  8.7.5.4.3.                    ",
"                                                                "
};
