/* XPM */
static char *d8dff92126984cecb86087a850cdb251bKNC9pnY5b7YCs4z[] = {
/* columns rows colors chars-per-pixel */
"64 64 230 2 ",
"   c None",
".  c #000000",
"X  c gray5",
"o  c #1A1A1B",
"O  c #341D0F",
"+  c #262626",
"@  c #2E2F30",
"#  c #39383B",
"$  c #2F3234",
"%  c #7C2A03",
"&  c #782A06",
"*  c #683218",
"=  c #7B3818",
"-  c #75310D",
";  c #5A3C38",
":  c #51352A",
">  c #683926",
",  c #773E23",
"<  c #613C33",
"1  c #612105",
"2  c #78432B",
"3  c #684538",
"4  c #794A37",
"5  c #78513F",
"6  c #5E423F",
"7  c #3B3749",
"8  c #273857",
"9  c #2F3651",
"0  c #113569",
"q  c #1E355D",
"w  c #4A3B44",
"e  c #553F41",
"r  c #354159",
"t  c #2D4669",
"y  c #3A4C69",
"u  c #3A5577",
"i  c #2E527B",
"p  c #4C4B4D",
"a  c #5A4546",
"s  c #494653",
"d  c #575558",
"f  c #47505A",
"g  c #674A45",
"h  c #774E42",
"j  c #6B5044",
"k  c #795749",
"l  c #6A5957",
"z  c #715952",
"x  c #75635B",
"c  c #6F615A",
"v  c #5B5D62",
"b  c #4B5C75",
"n  c #59697C",
"m  c #55606D",
"M  c #656568",
"N  c #786A67",
"B  c #666C75",
"V  c #6D757D",
"C  c #6C7176",
"Z  c #737475",
"A  c #757679",
"S  c #7A7A7C",
"D  c #787779",
"F  c #7C716C",
"G  c #832C01",
"H  c #852F05",
"J  c #8A3507",
"K  c #9B3D0A",
"L  c #933908",
"P  c #853A13",
"I  c #994416",
"U  c #8C4118",
"Y  c #A6430C",
"T  c #A94913",
"R  c #B7551B",
"E  c #AD4F1A",
"W  c #864929",
"Q  c #974E25",
"!  c #8F5233",
"~  c #A95929",
"^  c #BB5D22",
"/  c #B25A25",
"(  c #A35D32",
")  c #BC612A",
"_  c #BD6026",
"`  c #A8643C",
"'  c #C56124",
"]  c #C86121",
"[  c #C25F22",
"{  c #845742",
"}  c #8A6958",
"|  c #916A54",
" . c #AF724E",
".. c #886E61",
"X. c #947769",
"o. c #817978",
"O. c #94827A",
"+. c #A8826B",
"@. c #1A5694",
"#. c #184E89",
"$. c #3A5C82",
"%. c #275C92",
"&. c #2C6198",
"*. c #35689C",
"=. c #2867A6",
"-. c #3A6DA2",
";. c #266CB4",
":. c #3877B7",
">. c #3572AE",
",. c #486483",
"<. c #596B82",
"1. c #5C738C",
"2. c #56718A",
"3. c #587697",
"4. c #4C7198",
"5. c #697688",
"6. c #7D7F82",
"7. c #677D95",
"8. c #4776A6",
"9. c #537DA9",
"0. c #4178B0",
"q. c #405E80",
"w. c #7D8387",
"e. c #798899",
"r. c #6D8299",
"t. c #5A83AD",
"y. c #4B82B9",
"u. c #5C8AB8",
"i. c #6A88A8",
"p. c #728CA8",
"a. c #7993AC",
"s. c #7690AA",
"d. c #688DB3",
"f. c #6D92B9",
"g. c #7997B6",
"h. c #3A82C9",
"j. c #4686C6",
"k. c #528BC5",
"l. c #5A93CC",
"z. c #5A97D4",
"x. c #6797C8",
"c. c #759CC3",
"v. c #76A5D4",
"b. c #73A1CE",
"n. c #858789",
"m. c #8A8C8E",
"M. c #848486",
"N. c #938986",
"B. c #8C8E91",
"V. c #888F98",
"C. c #8B9196",
"Z. c #929496",
"A. c #949699",
"S. c #96999B",
"D. c #999B9D",
"F. c #9B9797",
"G. c #9A908C",
"H. c #A79890",
"J. c #8596A7",
"K. c #999EA3",
"L. c #879CB3",
"P. c #9EA1A3",
"I. c #99A4AE",
"U. c #8BA2BA",
"Y. c #99A9BA",
"T. c #A2A4A6",
"R. c #A5A7A9",
"E. c #A6A9AB",
"W. c #AAACAE",
"Q. c #B2ACAA",
"!. c #A3ABB4",
"~. c #ADAEB1",
"^. c #A3AEB9",
"/. c #AFB1B3",
"(. c #AAB4BE",
"). c #B2B3B5",
"_. c #B4B6B9",
"`. c #B7B9BB",
"'. c #B9BBBD",
"]. c #CDA996",
"[. c #D0AB97",
"{. c #CFBCB1",
"}. c #DCC6B9",
"|. c #8CA8C4",
" X c #94ACC5",
".X c #9AB2C9",
"XX c #87B2DB",
"oX c #95B4D3",
"OX c #87ABD0",
"+X c #A9B8C7",
"@X c #B5BCC4",
"#X c #BCBEC1",
"$X c #B2BECA",
"%X c #A3BCD4",
"&X c #BEC1C3",
"*X c #B5C1CD",
"=X c #B8C8D8",
"-X c #A9C1D9",
";X c #B5CBE1",
":X c #C2C3C5",
">X c #C5C7C8",
",X c #C6C8CA",
"<X c #CACCCD",
"1X c #C9C7C6",
"2X c #CDCFD1",
"3X c #C2CBD3",
"4X c #CED0D2",
"5X c #CDD4DC",
"6X c #C6D0DB",
"7X c #D3D4D5",
"8X c #D4D7D9",
"9X c #D7D8DA",
"0X c #DBDCDD",
"qX c #D9D5D4",
"wX c #D7CAC2",
"eX c #E6D7D0",
"rX c #CCD8E4",
"tX c #DDDFE0",
"yX c #D2DBE6",
"uX c #DFE0E2",
"iX c #DDE3E9",
"pX c #E3E4E4",
"aX c #E7E8E9",
"sX c #EBEBEC",
"dX c #E7E7E7",
"fX c #F2EDEB",
"gX c #EEEFF0",
"hX c #EFF0F0",
"jX c #F3F3F4",
"kX c #F7F7F9",
/* pixels */
"                                        J.p.3.4.4.3.7.e.e.                                                                      ",
"                                      f.d.d.i.p.s.a.J.L.I.I.                                                                    ",
"                                *XoXl.j.y.u.U.+X+X@X@X@X@X`._.~.K.                                                              ",
"                            (.+XoXv.l.j.l.c.%X3X2X<X<X,X:X&X`.).T.D.                                                            ",
"                          _.*XoXz.j.l.v.%X=X6X4X4X<X<X,X:X#X'._.~.T.A.                                                          ",
"                        '.+XoXb.h.h.v.%X5X0X9X7X4X<X,X>X:X#X'._./.E.D.Z.                                                        ",
"                        ,X%Xx.h.h.l.-X8X0X0X8X7X4X<X,X>X:X#X'._./.W.T.D.                                                        ",
"                      _.$X|.:.;.k.OX6XpX0X9X7X7X2X,X,X:X:X#X'._./.W.T.K.Z.                                                      ",
"                    ).^.U.d.;.>.c.*X5X0X9X7X7X7X<X,X>X:X:X'.`.).~.W.T.D.B.                                                      ",
"                    '.^.f.0.=.0..X2X8X8X7X7X7X<X,X,X>X:X#X'._.).~.E.T.D.B.n.                                                    ",
"                    1X^.9.=.=.t.+X7X7X7X7X7X2X<X,X>X:X&X#X'._./.W.R.T.D.B.n.                                                    ",
"                    >XY.8.@.*.d.$X7X7X4X4X<X<X,X>X:X&X#X'._.).~.E.T.P.S.B.m.                                                    ",
"                  /.@XU.*.@.8.g.$X7X4X<X<X,X,X>X:X:X&X'.`.)./.W.R.T.K.S.B.m.                                                    ",
"                  K.Y.a.&.@.8.L.@X<X<X,X,X,X>X>X:X&X#X'._.).~.E.T.P.D.A.B.m.                                                    ",
"                  e.J.i.%.@.9.U.@X,X,X,X,X>X:X:X:X&X'.`.).~.W.R.T.K.S.Z.B.m.                                                    ",
"                  7.i.3.@.@.8.a.Y.+X+X(.(.(.(.(.^.^.!.!.!.E.R.T.P.D.A.B.m.n.                                                    ",
"                  1.1.,.#.#.*.9.p.a.a.a.a.a.a.s.p.p.p.p.J.K.K.P.D.A.Z.m.n.M.                                                    ",
"                    B b y y b <.5.5.5.5.5.5.5.5.1.1.5.7.e.e.V.V.B.m.n.M.M.M.                                                    ",
"                      { k k k k { } } } } } } ..M M N D w.r.1.1.V Z C Z S 6.                                                    ",
"                      ~ ~ ~ ( ( ( ( ( ` ` ` ` | l l } X.n.r.1.<.m v d M Z S                                                     ",
"                      ~ ^ _ ) ) ) ) ) ) ) ) ) ( h z | X.G.V.e.5.y r s d C S                                                     ",
"                      E ^ [ ' ' ' ' ' ' ' ] ] ~ 5 z | +.G.V.e.5.t 8 f M C A                                                     ",
"                      E R ^ [ ' ' ' ' ' ' ' ] ~ 5 z X.O.6.7.1.,.i u n Z Z Z                                                     ",
"                      I R R R ^ ^ ^ / / ~ ~ ~ ! g d F D <.,.,.$.$.,.5.S A                                                       ",
"                      2 E R R R / ~ Q ! 5 h h g s y b ,.$.$.$.$.,.<.V S                                                         ",
"                    7 ; W Q Q Q Q ! W 4 g g a s r t u $.$.q.,.,.n B V A                                                         ",
"                    q 9 p a 3 3 4 4 W W 4 3 g s t t u n n V 5.V V V Z                                                           ",
"                    0 q 9 7 w a 6 3 4 2 4 4 3 a r y b B A S S S D A                                                             ",
"                      q 9 7 w a e e ; 3 2 2 2 3 a d B V A A Z Z                                                                 ",
"                      q 9 7 w ; ; < < < , , > 3 j c Z D Z N c z                                                                 ",
"                      0 9 w w ; , P P P P = : a z ..o.S x h 2 =                                                                 ",
"                      0   7 w ; = P P = = 3 a l } ....x 5 , - &                                                                 ",
"                          9 # : > > : ; a l o.O.X.} W = = - % & *                                                               ",
"                          u f s a g d v M D N.O.| ! = % G G % & * j G.                                                          ",
"                        p.i.1.<.A 6.B.F.F.N...{ W = % G H H G - > c Q.7X7X<X                                                    ",
"                        $X.XU.L.K.T.Q.Q.H.X.! = % G G H J H % - 3 D `.9X9X7X7X7X                                                ",
"                  0XaXsXaXiX5X3X&X`.).H.| W = H H J J L L G 1 * x S.>XuXpXpXpX0X7X<X:X                                          ",
"              9X0XdXsXkXkXkXjXdXqX{.H.X.P % G H L L K L L % 1 3 N.'.8XpXaXaXdXpX0X7X<X>X:X                                      ",
"            pXdXaXsXjXkXkXkXkXfXeX].| W J H J L K K K K J - : c ).tXdXaXaXaXdXpXpX0X9X4X,X:X_.~.                                ",
"          9XdXsXgXjXjXkXjXkXkXfXeX].( J J L K Y Y Y Y L - > l B.4XgXsXsXaXdXpXpXpXtX0X7X2X>X'.).~.                              ",
"          0XsXjXjXjXjXkXkXkXkXfXeX].` L K K T T T T Y L * j F.,XpXgXsXaXdXpXuX0X7X7X9X9X7X<X&X`._.).                            ",
"        9XuXsXjXjXjXjXjXjXjXjXsXeX[.` Y Y T E R E T L = 3 o.:XaXsXsXsXaXdXpXtX9X7X7X7X9X9X7X,X&X'.`.                            ",
"        9XtXaXgXsXsXsXjXjXjXjXsXeX[. .T E E R R R I * 3 N.`.0XsXsXsXsXsXaXdXuX0X8X7X8X9X9X8X4X,X>X&X`.                          ",
"        8X0XaXsXaXaXsXhXjXjXjXsXdX{. .E R R R E I U 3 F _.tXsXsXsXaXaXaXaXdX0X0X0X0X0X0X0X0X9X7X2X>X`.).                        ",
"        7X0XdXaXpXpXsXsXhXhXhXhXsX}. ./ ' ' E U * 3 O.).9XsXsXsXaXaXdXpXpXpX0X0XdXaXpXuXtXtXtX0X7X,X'.).                        ",
"        7X9XpXdXuXpXaXsXsXsXsXjXjXwXX.W Q Q W 2 j o.).0XaXsXsXaXaXdXpXtX0X9X7X9XpXdXpX0X0X0X0X9X4X>X'.).                        ",
"        4X7X0XuX0XtXaXsXsXsXsXjXkX1XN : O O : c F.:X0XaXsXsXaXaXdXpXpX0X4X<X4X7X7X7X7X7X2X2X2X,X:X'._.).                        ",
"        <X7X7X9X9X0XdXaXsXsXsXhXjX<X6.p $ # v Z.<XaXsXsXaXaXaXdXpXpXtX8X>X:X2X7X2X,X,X,X:X:X>X:X'._.)./.                        ",
"          <X,X<X7X0XdXaXsXsXaXsXjX0X).S.B.D.'.7XpXsXsXaXaXaXdXpXpXtX0X7X'.'.4X7X<X>X:X&X#X#X:X:X'._./.~.                        ",
"          :X:X,X7X0XdXpXrX=X=X;XrXrX5X2X2X9XaXgXsXaXaXaXaXdXpXpXtX0X9X<X`.'.<X7X,X:X&X'.'.'.:X:X'.).W.R.                        ",
"          _.&X,X7X0XdXrXoXc.k.l.v.-XrXpXdXdXiXiXiXpXaXdXdXpXuX0X0X9X7X,X'.'.,X<X>X:X#X'.'.'.:X&X_.W.K.A.                        ",
"          A.E.`.2X0XdX5XoXx.j.h.z.XXrXaXyX;X-X%X%X*X5X9XtXtX0X0X9X7X,X:X'.#X>X,X:X&X#X'.'.'.:X&X).T.Z.n.                        ",
"          v S D.>X0XpX0X5X%Xv.l.z.XXrXyXoXx.y.:.0.u.|.*X5X0X0X9X7X<X:X'.'.&X:X:X&X#X'.'.'.#X:X#X~.D.n.D                         ",
"            p Z ).7X0X0XpX5XoXv.z.v.;X=Xx.:.;.=.=.9.U.$X4X9X9X7X7X,X'._.'.&X:X&X#X'.'.`.`.'.:X#XW.S.w.M                         ",
"            o p D.>X7X9X0X6XoXv.l.b.-X%Xj.;.:.y.f.|.*X4X7X7X7X7X4X>X`.).'.&X'.'.'.'.`._._.'.:X#XW.A.A                           ",
"              # m.`.<X7X9X3XoXx.k.x.%XoX:.;.y.f.g.|.+X,X4X7X4X2X<X:X)./.'.'._.).`.`._.)./._.:X#XR.m.M                           ",
"                B.W.>X7X7X=XoXc.k.x..X|.:.;.u.f.t.t.d.U.*X7X<X,X,X:X)./.'.'.W.E.).`.).~.R./.:X'.S.D p                           ",
"                  R.#X,X<X*X Xc.y.u..X X>.=.f.g.t.8.-.t.+X<X,X,X>X#X)./.'.`.E.R.).'.`.~.P.D.T.A.C d @                           ",
"                      ).`.(. Xg.y.u.+X.X8.-.f.|.U.d.&.*.Y.>X>X:X&X'././.'.`.W.W.).'.&X).D.6.M p @ o                             ",
"                        W.^.Y.g.t.f.@X+Xd.9.d.g.g.t.@.&.U.&X:X&X#X`././.).~.P.D.D.S.A.n.Z d # o X .                             ",
"                              J.J.I.#X@XY.g.9.-.-.&.@.*.U.#X&X#X'._.~.E.P.A.n.Z M d # @ + o o X                                 ",
"                                  W.'.#X_.L.8.&.%.%.%.3.I.'.'.'.`.~.D.n.Z M d p # + X . . .                                     ",
"                                          V.7.1.2.1.r.J.!.).)._._.P.Z p $ + + o o X                                             ",
"                                            M.M.w.n.A.T.W.).).).).S.v @ X . . . .                                               "
};
