/* XPM */
static char *out[] = {
/* columns rows colors chars-per-pixel */
"32 32 217 2 ",
"   c None",
".  c black",
"X  c #080507",
"o  c #090909",
"O  c #353536",
"+  c #3E333E",
"@  c #3A3939",
"#  c #511800",
"$  c #752900",
"%  c #732B06",
"&  c #7B2801",
"*  c #472D21",
"=  c #45332D",
"-  c #5E3529",
";  c #4C3B3F",
":  c #653C27",
">  c #53453D",
",  c #784129",
"<  c #6A453B",
"1  c #153355",
"2  c #3A3140",
"3  c #3D3744",
"4  c #34374D",
"5  c #3D3E54",
"6  c #173665",
"7  c #2E3F61",
"8  c #513D41",
"9  c #0C417E",
"0  c #25416A",
"q  c #414142",
"w  c #444647",
"e  c #564143",
"r  c #574348",
"t  c #4F4F50",
"y  c #5B5B5B",
"u  c #61494A",
"i  c #65514B",
"p  c #735443",
"a  c #585661",
"s  c #51657D",
"d  c #636567",
"f  c #696C6F",
"g  c #736E6E",
"h  c #6F7070",
"j  c #737376",
"k  c #747779",
"l  c #75777A",
"z  c #767879",
"x  c #77797B",
"c  c #787A7D",
"v  c #802901",
"b  c #823305",
"n  c #8A3407",
"m  c #8F3405",
"M  c #963B09",
"N  c #843A12",
"B  c #9E4112",
"V  c #9A4517",
"C  c #A1400B",
"Z  c #B14C14",
"A  c #B4541A",
"S  c #B1541E",
"D  c #B95A1F",
"F  c #8A4B28",
"G  c #9C4D21",
"H  c #814D35",
"J  c #935934",
"K  c #A35526",
"L  c #A35628",
"P  c #BE5E22",
"I  c #A35E33",
"U  c #9A623F",
"Y  c #C05B1F",
"T  c #C36023",
"R  c #C66327",
"E  c #CD6B2F",
"W  c #9E6949",
"Q  c #8D6C58",
"!  c #906D59",
"~  c #B37C59",
"^  c #917665",
"/  c #9C8176",
"(  c #003880",
")  c #04478B",
"_  c #0A4B8F",
"`  c #175493",
"'  c #1D5C9C",
"]  c #2D5581",
"[  c #3A5C81",
"{  c #29639F",
"}  c #3C6796",
"|  c #135DA7",
" . c #1666B7",
".. c #376DA2",
"X. c #3E76AD",
"o. c #206FBD",
"O. c #446488",
"+. c #556A80",
"@. c #566C85",
"#. c #5A7693",
"$. c #52769B",
"%. c #5B7A9E",
"&. c #607389",
"*. c #7C7D80",
"=. c #557EA9",
"-. c #1D77CE",
";. c #748088",
":. c #73859B",
">. c #72889F",
",. c #4581BC",
"<. c #5D8DBF",
"1. c #6383A3",
"2. c #6487AB",
"3. c #7790AB",
"4. c #7C93AA",
"5. c #7994AF",
"6. c #698FB7",
"7. c #7F9EBE",
"8. c #3D83C9",
"9. c #4F8BC9",
"0. c #5A9CDD",
"q. c #6DA3D9",
"w. c #75A3D0",
"e. c #7EA8D4",
"r. c #828283",
"t. c #848686",
"y. c #88888B",
"u. c #888A8E",
"i. c #898C8D",
"p. c #888B93",
"a. c #8C8E90",
"s. c #8D8F91",
"d. c #919194",
"f. c #959597",
"g. c #939598",
"h. c #989B9D",
"j. c #A39C97",
"k. c #8190A1",
"l. c #8795A3",
"z. c #969BA0",
"x. c #839EB9",
"c. c #9EA0A2",
"v. c #9BABBE",
"b. c #A2A2A2",
"n. c #A1A3A5",
"m. c #ADA6A2",
"M. c #A6A8AB",
"N. c #ABADAF",
"B. c #B8B2AE",
"V. c #AAAEB0",
"C. c #ACAEB0",
"Z. c #ACAFB2",
"A. c #AEB0B3",
"S. c #B1B2B2",
"D. c #B0B2B4",
"F. c #B1B3B5",
"G. c #B2B2B4",
"H. c #B5B6B7",
"J. c #B4B6B8",
"K. c #B6B8BB",
"L. c #B7B9BB",
"P. c #B8BABD",
"I. c #B9BBBF",
"U. c #DFC7BB",
"Y. c #E3C9BB",
"T. c #81A2C5",
"R. c #91A8C1",
"E. c #9AAFC7",
"W. c #A8B4C1",
"Q. c #BBBEC0",
"!. c #BDBFC1",
"~. c #B8BFC5",
"^. c #BFC1C3",
"/. c #B0C0CD",
"(. c #AEC3D5",
"). c #A9C2DB",
"_. c #B7C4D2",
"`. c #BBCAD9",
"'. c #C0C2C3",
"]. c #C1C3C5",
"[. c #C4C4C6",
"{. c #C4C6C7",
"}. c #C6C7CA",
"|. c #C7CACB",
" X c #CACBCD",
".X c #CBCBCD",
"XX c #CBCDCE",
"oX c #C7CED6",
"OX c #CCCED0",
"+X c #CDCFD0",
"@X c #CFCFD1",
"#X c #D0D1D2",
"$X c #D1D3D4",
"%X c #D3D5D7",
"&X c #D6D7D8",
"*X c #D6D8D8",
"=X c #D7D9DA",
"-X c #D8D9DA",
";X c #DADADA",
":X c #D9DBDC",
">X c #DDDEDF",
",X c #E2D5CE",
"<X c #CFDAE3",
"1X c #D8DDE3",
"2X c #DEDFE1",
"3X c #DEE4E9",
"4X c #E1E2E3",
"5X c #E3E4E5",
"6X c #E7E7E7",
"7X c #E8E9E9",
"8X c #E9EAEB",
"9X c #EBEBED",
"0X c #EDEEEF",
"qX c #EFF0F0",
"wX c #F1F2F2",
"eX c #F4F4F5",
"rX c #F8F8F9",
/* pixels */
"                    4.$.$.>.l.                                  ",
"              V.(.8.,./.+X|.^.J.f.                              ",
"            S.).-.w.>X&X+X|.^.P.Z.a.                            ",
"            oXo.9.4X:X%XOX}.^.L.Z.n.                            ",
"          H.6.| _.=X&X#X X{.!.J.N.c.y.                          ",
"           X' ..&X$X#XXX}.^.I.F.M.c.i.                          ",
"          W._ 2.OXXX X}.].Q.J.N.n.h.s.                          ",
"        #.3.) 5.}.{.{.^.!.L.A.M.c.g.u.                          ",
"          @.9 } 1.1.1.1.%.%.k.c.g.s.r.                          ",
"          G I J J U W W a ! :.O.f d *.                          ",
"          G T R R R R T u ~ h.p.1 t l                           ",
"            D P T T T T u / &.O.] *.j                           ",
"          ; A A K H u u 7 [ ] [ +.x                             ",
"          6 5 e < F H r 0 s c *.x                               ",
"            4 e 8 8 , , i k k g                                 ",
"          ( 2 8 M M N 3 Q r.p $                                 ",
"              + - 3 a j.^ & v & :                               ",
"            x.1.p.B.m.H & v n v > &X#X                          ",
"        ;XwXrX7X Xm.% v m M m # g.>X7X6X$X'.                    ",
"      6XqXeXeXrXY.N n M C C b t 8X9X7X4X6X=X}.G.                ",
"    ;XeXeXeXeXeXU.V B Z Z C = >X0X9X5X>X+X=X&X!.K.              ",
"    -X0X7XqXwXwX,XS A Y Z * |.qX8X9X7X>X=X=X:X$X|.S.            ",
"    *X8X2X0XqXqXwXL E V * {.qX9X7X4X4X&X0X5X2X4X$XH.            ",
"    @X>X:X8X9X0XwX@ . t 2X0X8X7X5X2X{.$X+XOX}.}.P.D.            ",
"    .X{.=X7X8X3X0X].^.qX8X8X7X5X2X:XA.:X}.!.P.{.P.C.            ",
"      ].=X6X<.o.q.8X9X<X1X6X4X>X=X XL.XX].Q.P.{.Z.d.            ",
"      h :X>X4Xe.0.6X9.| ' R.:X=X$XL.!.{.Q.I.P.}.n.z             ",
"      X F.&X=Xe.9.`. .<.E.&X%X#XOXZ.^.L.I.J.J.{.n.y             ",
"        f.OX$XT.,./.| 7...=.+X X}.N.!.c.L.A.c. Xc               ",
"            G.R.X.+X{ R.v.) ~.].Q.Z.Q.M.J.^.r.O .               ",
"                b.[.W.{ ` ` I.Q.L.M.s.h q o . .                 ",
"                      t.;.z.D.F.F.w . . .                       "
};
