/* XPM */
static char *out[] = {
/* columns rows colors chars-per-pixel */
"32 32 140 2 ",
"   c None",
".  c #6B737A",
"X  c #6C747B",
"o  c #6D747B",
"O  c #6D757C",
"+  c #6E757C",
"@  c #6E767C",
"#  c #6E767D",
"$  c #6F767D",
"%  c #6F767E",
"&  c #6F777E",
"*  c #70777E",
"=  c #70777F",
"-  c #70787E",
";  c #70787F",
":  c #71787F",
">  c #717980",
",  c #727980",
"<  c #727A81",
"1  c #737A81",
"2  c #737A82",
"3  c #747B82",
"4  c #747C83",
"5  c #757C83",
"6  c #757D84",
"7  c #767D85",
"8  c #767E85",
"9  c #777E85",
"0  c #777F86",
"q  c #787F86",
"w  c #788087",
"e  c #798087",
"r  c #788188",
"t  c #798188",
"y  c #7B8389",
"u  c #9DACB6",
"i  c #9EACB6",
"p  c #9EADB6",
"a  c #A2B0B9",
"s  c #A3B0B9",
"d  c #A7B5BE",
"f  c #A7B5BF",
"g  c #A7B6BF",
"h  c #A8B5BE",
"j  c #ABB6BE",
"k  c #A7B6C0",
"l  c #A8B6C0",
"z  c #AAB9C2",
"x  c #ABB9C2",
"c  c #ABB9C3",
"v  c #ACBBC4",
"b  c #B2BBC2",
"n  c #B1BEC8",
"m  c #B1C0C8",
"M  c #B2C0C8",
"N  c #B2C1C9",
"B  c #B4C0C9",
"V  c #B4C2CA",
"C  c #B4C3CB",
"Z  c #BBC2C9",
"A  c #B8C3CB",
"S  c #BDC7CD",
"D  c #BFC9CD",
"F  c #BFC9CF",
"G  c #BAC8D0",
"H  c #BBC8D0",
"J  c #BAC8D1",
"K  c #BBC9D2",
"L  c #BBCAD2",
"P  c #BCC9D1",
"I  c #BCCAD2",
"U  c #BDCAD2",
"Y  c #BCCAD3",
"T  c #BDCCD4",
"R  c #BECCD4",
"E  c #BFCED6",
"W  c #C0C9D0",
"Q  c #C4CBD1",
"!  c #C6D0D7",
"~  c #C8D0D6",
"^  c #C2D2DA",
"/  c #C3D2DA",
"(  c #C7D1D8",
")  c #C5D3DA",
"_  c #C5D2DB",
"`  c #C6D4DB",
"'  c #C5D2DC",
"]  c #C5D3DC",
"[  c #C7D4DC",
"{  c #C6D4DD",
"}  c #C7D5DD",
"|  c #CCD4DA",
" . c #CDD6DB",
".. c #CCD8DD",
"X. c #CDD9DE",
"o. c #D0D9DD",
"O. c #D2DADF",
"+. c #D3DADF",
"@. c #CFDBE3",
"#. c #D3DBE1",
"$. c #D3DCE0",
"%. c #D3DCE1",
"&. c #D6DDE1",
"*. c #D6DDE2",
"=. c #D6DEE2",
"-. c #D7DFE3",
";. c #D0DDE5",
":. c #D0DEE6",
">. c #D5DFE5",
",. c #D6DFE5",
"<. c #D7E0E6",
"1. c #D7E1E6",
"2. c #D9E1E5",
"3. c #D8E1E7",
"4. c #DAE2E6",
"5. c #DBE2E6",
"6. c #DBE2E7",
"7. c #DBE3E7",
"8. c #DEE6EB",
"9. c #DEE7EB",
"0. c #DBE6EC",
"q. c #DBE7EE",
"w. c #DFE8EC",
"e. c #DDE8EE",
"r. c #DCE8EF",
"t. c #E0E7EB",
"y. c #E1E7ED",
"u. c #E1E8ED",
"i. c #E1E8EE",
"p. c #E3E9EF",
"a. c #E5ECF1",
"s. c #E4EDF1",
"d. c #E6ECF1",
"f. c #E6EDF2",
"g. c #E6EDF3",
"h. c #E6EEF2",
"j. c #E6EEF3",
"k. c #E7EEF3",
"l. c #EBF2F7",
"z. c #ECF4F8",
/* pixels */
"                                                                ",
"                                                                ",
"  y w 8 8 8 8 0 t 0 8 8 8 8 8 8 8 0 t 0 8 8 8 8 8 8 8 8 8 w r   ",
"  w %.o.o.o.o.$.2 $.o.o.o.o.o.o.o.$.2 $.o.o.o.o.o.o.o.o.o.%.w   ",
"  0  .u i i u | ; | u i p p p i u | ; | u i p p p p p i u  .0   ",
"  0 W a s s a F , F a s s s s s a F , F a s s s s s s s a W 0   ",
"  e B g f f f M 4 M f g g k g g f M 4 M f g g l g g g f g B e   ",
"  t 4 > : : : , 1 , : > 1 4 1 > : , 1 , : > 1 5 3 , : : > 4 t   ",
"  0 4.=.&.*.*.=.=.=.&.=.2.> 2.=.&.=.=.=.&.=.2.< D -.=.&.=.4.0   ",
"  8 #.d d h h h h h d d O.& O.d d h h h d d +.; Z l h d d #.8   ",
"  0 ( z x c c c c c x z ! ; ! z x c c c x z ! , b v c x z ( 0   ",
"  w U m m m m m M m m m P 1 P m m m M m m m P 4 j N m m m U w   ",
"  t 1 * * * * > 1 > * * ; , ; * * > 1 > * * ; < > * * * * 1 t   ",
"  0 t.7.5.5.7.8.; 8.7.5.7.7.7.5.7.8.; 8.7.5.7.7.7.6.6.5.7.t.0   ",
"  6 3.n n n n <.+ <.n n n n n n n <.+ <.n n n n n n n n n 3.6   ",
"  7 X.C V V C ..% ..C V C C C V C ..% ..C V C C C C C V C X.7   ",
"  q ` L K K L ) , ) L K L L L K L ) , ) L K L I L L K K L ` q   ",
"  w , $ + + @ & ; & + # * , * # + & ; & + # - < : $ + + $ , w   ",
"  8 g.i.y.y.y.u.u.u.y.i.a.& a.i.y.u.u.u.y.i.d.; ~ p.u.y.i.g.8   ",
"  6 w.J G G G G G G G J 9.X 9.J G G G G G J 9.# Q Y H G J w.6   ",
"  6 1.T T T T T T T T T >.O >.T T T T T T T ,.& S E R T T 1.6   ",
"  0 ;.' _ _ _ ' ] ' _ ' @.; @.' _ ' ] ' _ ' @., A { _ _ ' ;.0   ",
"  w ; o o o o $ ; $ o o + & + o o $ ; $ o o + = $ O o o o ; w   ",
"  8 z.k.f.f.k.l.# l.k.h.h.k.h.h.k.l.# l.k.h.h.k.h.h.h.f.k.z.8   ",
"  4 j./ ^ ^ / s.. s./ ^ / / / ^ / s.. s./ ^ / / / / / ^ / j.4   ",
"  5 e.} [ [ } 0.X 0.} [ [ [ [ [ } 0.X 0.} [ [ [ [ [ [ [ } e.5   ",
"  0 r.:.:.:.:.q.: q.:.:.:.:.:.:.:.q.: q.:.:.:.:.:.:.:.:.:.r.0   ",
"  $ 0 6 6 6 6 9 w 9 6 6 6 6 6 6 6 9 w 9 6 6 6 6 6 6 6 6 6 0 $   ",
"                                                                ",
"                                                                ",
"                                                                ",
"                                                                "
};
