/* XPM */
static char *_b43eb2e8dfd42aa937cfbfa9b853a3bwf4X8d9bS9uBxqTk[] = {
/* columns rows colors chars-per-pixel */
"64 64 142 2 ",
"   c None",
".  c #676F75",
"X  c #697076",
"o  c #6E757C",
"O  c #70777E",
"+  c #71787F",
"@  c #737B82",
"#  c #787F86",
"$  c #788087",
"%  c #7D858D",
"&  c #7F888F",
"*  c #7F8890",
"=  c #80878E",
"-  c #80888F",
";  c #848C93",
":  c #888F95",
">  c #899097",
",  c #8B949A",
"<  c #8F989F",
"1  c #90979E",
"2  c #90989F",
"3  c #939BA2",
"4  c #95A0A7",
"5  c #98A5AE",
"6  c #9DA8AF",
"7  c #9BA7B0",
"8  c #9EACB4",
"9  c #A0A7AE",
"0  c #A1AEB6",
"q  c #A9B2B7",
"w  c #A6B4BD",
"e  c #AAB5BD",
"r  c #AEB8BF",
"t  c #B1B8BE",
"y  c #A9B7C0",
"u  c #ADBAC3",
"i  c #B2BDC5",
"p  c #B8BFC6",
"a  c #B0BFC8",
"s  c #B3C0C7",
"d  c #B4C0C7",
"f  c #B6C0C6",
"g  c #B8C0C6",
"h  c #BAC3C7",
"j  c #BBC3C7",
"k  c #B1C0C8",
"l  c #B2C1C9",
"z  c #B3C1CA",
"x  c #B4C0C8",
"c  c #B4C1C8",
"v  c #B4C1C9",
"b  c #B4C0C9",
"n  c #B4C1CA",
"m  c #B5C1CA",
"M  c #B7C3CB",
"N  c #B5C4CC",
"B  c #B4C3CB",
"V  c #BAC3C8",
"C  c #BBC3C8",
"Z  c #BAC2C9",
"A  c #BBC4C9",
"S  c #B8C4CB",
"D  c #BCC4C9",
"F  c #BDC4C9",
"G  c #BDC5C9",
"H  c #BDC4CA",
"J  c #BDC5CB",
"K  c #BDC5CA",
"L  c #BEC5CA",
"P  c #BDC6CA",
"I  c #BDC6CB",
"U  c #BEC6CB",
"Y  c #BFC6CB",
"T  c #BFC7CB",
"R  c #B9C4CC",
"E  c #BBC6CD",
"W  c #BDC5CC",
"Q  c #BCC6CD",
"!  c #BFC7CC",
"~  c #BAC6CD",
"^  c #BDC8CF",
"/  c #BEC8CE",
"(  c #BAC7D0",
")  c #BDC8D0",
"_  c #BECBD3",
"`  c #BECCD3",
"'  c #BBCAD2",
"]  c #C0C7CC",
"[  c #C1C7CD",
"{  c #C1C8CD",
"}  c #C1C9CE",
"|  c #C2CACF",
" . c #C1C9CD",
".. c #C0CAD1",
"X. c #C0CBD1",
"o. c #C5CED3",
"O. c #C0CCD4",
"+. c #C1CDD4",
"@. c #C3CED5",
"#. c #C5CFD5",
"$. c #C3CCD3",
"%. c #C8CFD4",
"&. c #C5D0D5",
"*. c #C7D1D7",
"=. c #C7D0D5",
"-. c #C8D1D7",
";. c #C9D0D6",
":. c #C4D2DA",
">. c #C8D2D8",
",. c #C9D3D9",
"<. c #CAD4D9",
"1. c #CBD5DA",
"2. c #CCD5DA",
"3. c #CDD5DA",
"4. c #CCD5DB",
"5. c #CDD5DB",
"6. c #CDD6DB",
"7. c #CDD6DC",
"8. c #CED7DC",
"9. c #CBD6DD",
"0. c #CFD8DE",
"q. c #CED8DF",
"w. c #D0D8DE",
"e. c #D0D9DF",
"r. c #D1DADF",
"t. c #C9D7E0",
"y. c #CDDAE1",
"u. c #D2DBE0",
"i. c #D2DCE1",
"p. c #D2DDE3",
"a. c #D6E0E6",
"s. c #D9E1E5",
"d. c #D9E2E6",
"f. c #D8E0E6",
"g. c #D5E2E9",
"h. c #DBE4EA",
"j. c #DEE8EE",
"k. c #DCE9F0",
"l. c #E0E7EC",
"z. c #E0EAEF",
"x. c #E5EEF3",
"c. c #ECF4F9",
/* pixels */
"                                                                                                                                ",
"                                                                                                                                ",
"                                                                                                                                ",
"                                                                                                                                ",
"    $ $ # @ @ @ @ @ @ @ @ @ @ # $ $ # @ @ @ @ @ @ @ @ @ @ @ @ @ @ @ @ # $ $ # @ @ @ @ @ @ @ @ @ @ @ @ @ @ @ @ @ @ @ @ # #       ",
"    # % > , , , , , , , , , , : % % : , , , , , , , , , , , , , , , , : % % : , , , , , , , , , , , , , , , , , , , , > % #     ",
"    @ > q I A h h h h h h A I q ; ; q I A h h h h h h h h h h h h A I q ; ; q I A h h h h h h h h h h h h h h h h A I e > @     ",
"    @ , I i.<.#.&.&.&.&.#.<.u.V : : V u.<.#.&.&.&.&.&.&.&.&.&.&.#.<.u.V : : V u.<.#.&.&.&.&.&.&.&.&.&.&.&.&.&.&.#.<.i.I , @     ",
"    + , V ,.m e y y y y e m ,.p : : p ,.m e y y y y y y y y y y e m ,.p : : p ,.m e y y y y y y y y y y y y y y e m ,.V , @     ",
"    + , p X.e 8 8 8 8 8 8 e X.i ; ; i X.e 8 8 8 8 8 8 8 8 8 8 8 8 e X.i ; ; i X.e 8 8 8 8 8 8 8 8 8 8 8 8 8 8 8 8 e X.p , +     ",
"    + , i Q e 8 0 0 0 0 8 e R e ; ; e R e 8 0 0 0 0 0 0 0 0 0 0 8 e R e ; ; e R e 8 0 0 0 0 0 0 0 0 0 0 0 0 0 0 8 e Q i , +     ",
"    @ > e R y w w w w w w y A e ; ; e A y w w w w w w w w w w w w y A e ; ; e A y w w w w w w w w w w w w w w w w y R e > @     ",
"    @ > q m u w w w w w w y m w ; ; w m y w w w w w w w w w w w w y m w ; ; w m y w w w w w w w w w w w w w y w w u m q > @     ",
"    @ ; 5 0 7 5 5 5 5 5 5 7 8 4 % % 4 8 7 5 5 5 5 5 7 7 5 5 5 5 5 7 8 4 % % 4 8 7 5 5 5 5 5 7 7 5 5 5 5 5 5 5 5 5 7 0 5 ; @     ",
"    @ $ % * % % % % % % % % % $ @ @ $ % % % % % % % * * % % % % % % % $ @ @ $ % % % % % % % ; ; & % % % % % % % % % * % $ @     ",
"    @ % : , > > : : : : : : > > , , > > : : > > , ; # # ; , > > : : > > , , > > : : > > , ; # # = : > > > : : : > > , : % @     ",
"    @ > e { Q I I I I I I I I I I I I I I I I I { q ; ; q { I I I I I I I I I I I I I I { q ; % 5 t h I I I I I I Q { e > @     ",
"    + , { s.r.6.6.6.6.6.6.6.6.6.6.6.6.6.6.6.6.r.s.I : : I s.r.6.6.6.6.6.6.6.6.6.6.6.6.r.s.] > ; e $.<.8.8.6.6.6.6.r.s.{ , +     ",
"    o , Q r._ a a s d m m m m m m m m d s a a ^ 0.I : : I 0.^ a a s d m m m m d s a a ^ r.I : - q Q m m m d s a a _ r.Q , o     ",
"    O , V ,.a w w w w w w w w w w w w w w w w a &.p ; ; p &.a w w w w w w w w w w w w a -.h : % 0 p u w w w w w w a ,.V , O     ",
"    + , p O.a w e y y y y y y y y y y y y e w a O.i ; ; i O.a w e y y y y y y y y e w a O.i ; % 0 a u y y y y e w a O.p , +     ",
"    @ , i O.k u u u u u u u u u u u u u u u u k O.u ; ; u O.k u u u u u u u u u u u u k O.i : % 0 a a u u u u u u k O.i , @     ",
"    @ , u ` N a a k k k k k k k k k k k k a a N _ e ; ; e _ N a a k k k k k s k k a a N _ r : & 6 i k k k k k a a N ` u , @     ",
"    @ : 6 e 0 8 8 8 8 8 8 8 8 0 0 0 0 8 8 8 8 0 w 5 % % 5 w 0 8 8 8 8 0 0 0 0 8 8 8 8 0 w 5 % $ 3 7 8 0 0 8 8 8 8 0 e 6 : @     ",
"    @ $ - ; % % % % % % % % % & ; ; & % % % % % * % @ @ % * % % % % % - ; ; & % % % % % % $ @ @ $ % % % % % % % % % ; - $ @     ",
"    @ % : , > : : : : : : > , ; # # ; , > : : : > > , , > > : : : > , ; # # ; , > : : : > > , , , > > : : : : : : > , : % @     ",
"    @ , t $.{ { { ] ] { { { $.e ; ; e $.{ { { { { { { { { { { { { { $.e ; ; e $.{ { { { { { { { { { { ] ] ] ] { { { $.t , @     ",
"    o 1 $.l.s.i.u.u.u.u.i.a.j.X.: : X.j.a.i.u.u.i.i.i.i.i.i.u.u.i.a.j.X.: : X.j.a.i.u.u.i.i.i.i.i.i.u.u.u.u.u.u.i.s.l.$.1 o     ",
"    o , X.p.*.( ) _ _ ) ( *.p.Q : : Q p.*.( ) _ _ _ _ _ _ _ _ ) ( *.p.Q : : Q p.*.( ) _ _ _ _ _ _ _ _ _ _ _ _ ) ( *.p.X., o     ",
"    o , Q y.( u a a a a u ( 0.V ; ; V 0.( u a a a a a a a a a a u ( 0.V ; ; V 0.( u a a a a a a a a a a a a a a u ( y.Q , o     ",
"    o , A 9.( k k k k k k ( 9.d ; ; p <.( k k k k k k k k k k k k ( 9.d ; ; d 9.( k k k k k k k k k k k k k k k k ( 9.A , o     ",
"    O , V 9._ N N N N N N _ <.p ; ; p ,._ N N N N N N N N N N N N _ <.p ; ; p <._ N N N N N N N N N N N N N N N N _ 9.m , O     ",
"    + , m 9.` ( ( ( ( ( ( ` 9.a : : a 9.` ( ( ( ( ( ( ( ( ( ( ( ( ` 9.a : : a 9.` ( ( ( ( ( ( ( ( ( ( ( ( ( ( ( ( ` 9.m , +     ",
"    @ : 0 u e w w w w w w e u 7 % % 7 u e w w w w w e e w w w w w e u 7 % % 7 u e w w w w e e e e w w w w w w w w e u 0 : @     ",
"    @ $ ; ; ; % % % % % % & ; % @ @ % ; & % % % & ; ; ; ; & % % % & ; % @ @ % ; & % % % & ; ; ; ; ; & % % % % % % ; ; ; $ @     ",
"    @ % : , > : : : : : : : > > , , > > : : : > , ; @ @ ; , > : : : > > , , > > : : : > , ; # @ % ; : > : : > > : > , : % @     ",
"    + , i -.#.$.$.$.$.$.$.$.$.$.$.$.$.$.$.$.$.$.-.t ; ; t -.$.$.$.$.$.$.$.$.$.$.$.$.$.$.-.t ; % 9 p { $.$.$.$.$.$.#.-.i , +     ",
"    o 2 ,.x.j.d.d.d.d.d.d.d.d.d.d.d.d.d.d.d.d.j.x.&.> > #.x.j.d.d.d.d.d.d.d.d.d.d.d.d.j.x.-., ; t 8.s.h.d.d.d.d.d.j.x.,.2 o     ",
"    o , &.j.y.*.*.*.*.*.*.*.*.*.*.*.*.*.*.*.*.y.h.$.: : $.h.y.&.*.*.*.*.*.*.*.*.*.*.*.y.h.$.> - e ,.,.*.*.*.*.*.*.y.j.&., o     ",
"    o , $.a.:.( R ( ( ( ( ( ( ( ( ( ( ( ( ( ( :.a.^ ; ; ^ a.:.( ( ( ( ( ( ( ( ( ( ( ( :.a.{ : % e $._ ( ( ( ( ( ( :.a.$., o     ",
"    o , { p.*.( ( ( ( ( ( ( ( ( ( ( ( ( ( ( ( :.p.I ; ; I p.:.( ( ( ( ( ( ( ( ( ( ( ( :.p.Q : % q X.` ` _ _ ( ( ( *.p.{ , o     ",
"    o , ^ p.9.` ` O.+.+.+.+.+.+.O.O.O.O.O.O.` 9.p.A ; ; A p.9.` +.+.+.+.O.O.O.O.O.` ` 9.p.Q : & q _ O.:.O.O.O.` ` 9.p.^ , o     ",
"    O , ^ p.t.*.*.*.*.:.:.:.:.:.:.:.*.*.*.:.:.t.p.A : : A p.t.*.*.*.:.:.:.:.*.:.*.*.*.t.p.R : - w _ *.9.:.*.*.*.*.t.p.^ , O     ",
"    @ : w m a u u u u u u u u u a a u u u u u a m 0 % % 0 m a u u u u u a a u u u u u a m 0 % $ 3 q u u u u u u u a m w : @     ",
"    @ $ ; ; ; % % % % % * * ; ; ; ; ; ; & % % ; ; % @ @ % ; ; % * * ; ; ; ; ; ; & % % ; ; % @ + $ % * * & % % % % ; ; ; $ @     ",
"    @ % : , > : : : : : > , , ; @ @ ; , > : : : : > , , > : : : : , , ; @ @ ; , > : : : : > , , , > > > : : : : : > , : % @     ",
"    + , p 6.-.%.%.%.%.%.%.-.6.i ; ; i 6.-.%.%.%.%.-.-.-.-.#.#.#.%.-.6.i ; ; i 6.-.%.%.%.%.-.-.-.-.-.-.-.%.%.%.%.%.-.6.p , +     ",
"    o 3 8.c.x.z.z.z.z.z.z.x.c.<.> > <.c.x.z.z.z.z.z.z.z.x.j.j.z.z.x.c.<.> > <.c.x.z.z.z.z.z.z.z.z.z.z.z.z.z.z.z.z.x.c.8.3 o     ",
"    o 2 6.x.g.y.y.y.y.y.t.g.x.-.: : &.x.g.t.y.y.t.y.y.y.y.y.y.y.y.g.x.-.: : &.x.g.y.y.t.y.y.y.y.y.y.y.y.y.t.y.y.y.g.x.6.2 o     ",
"    o , -.j.y.:.:.:.:.:.:.y.j.$.: : $.j.t.:.:.:.:.:.:.:.:.:.:.:.:.y.j.$.: : $.j.y.:.:.:.:.:.:.:.:.:.:.:.:.:.:.:.:.y.j.-., o     ",
"    o , #.j.y.*.*.*.*.*.*.t.h.X.; ; _ h.y.*.*.*.*.*.*.*.*.*.*.*.*.y.h.X.; ; X.h.y.:.*.*.*.*.*.*.*.*.*.*.*.*.*.*.*.y.j.#., o     ",
"    o , #.j.p.t.t.t.9.9.t.y.j.X.: : _ j.p.t.9.9.t.t.t.t.9.t.9.9.t.p.j.X.: : X.j.p.t.9.9.9.9.9.9.t.t.9.9.9.9.9.9.t.p.j.#., o     ",
"    O < #.k.g.y.y.p.p.y.y.g.k.$.: : $.k.g.y.y.y.p.p.p.p.p.p.p.y.y.g.k.$.: : $.k.g.y.y.p.p.p.p.p.p.p.p.p.p.p.y.y.y.g.k.#.< O     ",
"    o , i O._ R R R R R R _ O.r ; ; u O._ R R R R R R R R R R R R _ O.r ; ; r O._ R R R R R R R R R R R R R R R R _ O.i , o     ",
"    o $ , < , , , , , , , , , , % % , < , , , , , , , , , , , , , , , , % % , , , , , , , , , , , , , , , , , , , , < , $ o     ",
"      . X X X X X X X X X X X X o o X X X X X X X X X X X X X X X X X X o o X X X X X X X X X X X X X X X X X X X X X X .       ",
"                                                                                                                                ",
"                                                                                                                                ",
"                                                                                                                                ",
"                                                                                                                                ",
"                                                                                                                                ",
"                                                                                                                                ",
"                                                                                                                                ",
"                                                                                                                                "
};
