/* XPM */
static char *wall_resized[] = {
/* columns rows colors chars-per-pixel */
"64 64 69 1 ",
"  c None",
". c #686F75",
"X c #697077",
"o c #6E757C",
"O c #70777E",
"+ c #70787F",
"@ c #747B82",
"# c #787F86",
"$ c #788087",
"% c #7D858D",
"& c #7F888F",
"* c #7F8890",
"= c #80878E",
"- c #80888F",
"; c #838C93",
": c #888F96",
"> c #879096",
", c #899096",
"< c #8C949A",
"1 c #8F989F",
"2 c #90989F",
"3 c #929AA1",
"4 c #97A0A7",
"5 c #95A0A8",
"6 c #99A5AE",
"7 c #9AA7B0",
"8 c #9DABB4",
"9 c #A0A8AE",
"0 c #A1ADB5",
"q c #A1AEB8",
"w c #A3B0B7",
"e c #A6B4BD",
"r c #AAB5BD",
"t c #AEB8BF",
"y c #B1B9BE",
"u c #A7B6C0",
"i c #A9B7C0",
"p c #ADBAC3",
"a c #B2BDC5",
"s c #B1BEC8",
"d c #B5C0C7",
"f c #B8C0C6",
"g c #B4C2CA",
"h c #BCC5CB",
"j c #BEC8CF",
"k c #BAC7D0",
"l c #BCC9D1",
"z c #C0C7CC",
"x c #C1C9CE",
"c c #C3CDD4",
"v c #C8CFD4",
"b c #C6D0D6",
"n c #C9D1D6",
"m c #C5D2DA",
"M c #CBD5DB",
"N c #CED9DF",
"B c #D0D9DE",
"V c #CAD7E0",
"C c #CCD9E1",
"Z c #D2DDE4",
"A c #D7E1E6",
"S c #D9E1E6",
"D c #D5E2E9",
"F c #DBE4EA",
"G c #DDE8EE",
"H c #DDE9F1",
"J c #E0EAEF",
"K c #E5EEF3",
"L c #EDF5FA",
/* pixels */
"                                                                ",
"                                                                ",
"                                                                ",
"                                                                ",
"  $$$#@@+$+$@@@$#$@@@+$+$@@@@@@@@@@@$$$+@@@@@@@@$$@@@@@@@$@@$   ",
"  $-,<<<<<<<<<<,%%,<<<<<<<<<<<<<<<<:&%,<<<<<<<<<<><<<<<<<<<<*$  ",
"  @,rzhffhfffhhr;;rhhhfhfhhfhffhhhhr;;rhhhfhffjhhfhffhhffhjr,$  ",
"  @<hZMvnnnbnMBh,,fBMnmmbbnbbbbbvMBh,,hBMbbbbbmlbbnbbbbbbnBh<$  ",
"  @<hMgirrpiigmf>>fMdtippiiippputdMf,;fnhrrdiiduipupppiprkMh<@  ",
"  @,aci88q888ijd;>yjr8888q8888888rjy;;yce088q88888q888880rld<+  ",
"  @>yjr8qqq8qrht;-rhr8q8wwqqqq8qqrjt;-thu88qqqqwqq8qqqq88rjy<+  ",
"  @,rhieeeewethr&>rkieeeeeeweeeeerhr;;ekdeqeweeeeeeeeeewerkr,@  ",
"  @,egpreeeeeige**egdeeueuuurrueedgw*>wguueuuueeueuueeuitpdr,+  ",
"  @;607676666785%%586677777766776605%%5076676788777766666606>@  ",
"  #$&*%%%%%%%%&%$@%*%%&%&***-&%%%&&%$$$&%%%%&****&&$%%%%%&&&%@  ",
"  @%><,,>>,,>,>><<>>>*>,,*$$-<,,*>,>,,,,>>>>>*$$&>,,,>>>>>,>%$  ",
"  @:rxxhhhhzhzzzzzzzhzzzxr--rxxhhxhhxhhhzzhxxr;%6yhhhhhzhzxt<+  ",
"  @2xSBMMMMBBnMNMMMBMMnBSx,,zSBMMMMMMMMMMMMBSx,-rcMBMMNMBBFx<+  ",
"  +<xBcaggggasgsagssgsacNh;:hBxdddgggfggdddjBz:-ehhfggggfjNx1+  ",
"  +<hmdeeeeurrrrrrrirreanf;;yMdeereretuuerrana:-wdprueeeedbf<+  ",
"  +<acgruuuuipiiuuuuiiigca;;abgituipruiutuugca;%9fpriiuuegcf<+  ",
"  @<acgpppdpspppsspppppgcy;;algpppspppdppppgct:=9agppdudpgcd<+  ",
"  @,slgggggggsdggggggggglt;;rlggdgggggggggggct,-8dddggggggla<@  ",
"  @:7rw8q8888800w8w8888qr6%%6r008q88wq888q8qr6-$278w8888qqe6>@  ",
"  #$---=%=%%===-***&-=%%-%@@=-=%%%%&;-&&=====$@@#====%%=&&--=#  ",
"  @%:<,,,::,:,,;$#;,,,,,,,<,,,,:>,<;$@-<::::,,<,::::::::>>,;=+  ",
"  @,yxxzxxxxxxxr-;tcxxxhxxxxxxxhjjxy--txvxxzxxxvxxxzzzzzhxcy,@  ",
"  +2vJSZBBZBZSJc,,xFSZBZBZZZBZZZAAGx<<xJZZZZZZZBZZZZZZZZAAJv2+  ",
"  o1cAmkcxkkkmZx>>jAblllxcllllkkjmAj>;xAmkkkllkkxxkxlllkhmAv1+  ",
"  O<zClgssssskNh;;hCjssssspgssssgjNh-,hNksssssssssssssssslNl<+  ",
"  O<hMlgsgggslMg;;fMlggggggggggggkMf;;fMlgsgsgggggsggggggkMg<O  ",
"  O<hmlghggkhlMg;;dMlggkgjgkgkgkglmd;;dMlgkgkkgkkgkkgkglglMh,+  ",
"  @,smcxlllllcma;;dMllllllllllljllMg>>dmckllllllllllkkkklbMs<@  ",
"  @:0aireeeeeia9&%8pteeeerrteeeerpr8%%0rreeeeiriiereeereeia0:@  ",
"  @%;;==%%%&&&;=+@&**&&&&*;;-&-&&&*&+$%&-===-;;;;***=%===-;-$@  ",
"  @%:,<,::::::,,<<,,>>>,,>@$-<<,>>,,,<,,:::<,:@@%:>>:::::,<:%@  ",
"  +,anvvcxcxvcvxvbxvvxvvby--yncxvxccbbcxcxcvva;%7fxvccvvvvna<+  ",
"  O3MKJZFFZFZFZJASFSSSSGKb,<bKJSFFSSADFFFFZJKv:;yBSFJZZFZJKm3O  ",
"  o2mJCmmnMnmmmmbmbmmmmNFc>>bGZlbbmmmmbbmbnBJc:-ynmmvmnmmBGn3o  ",
"  +<cZbkkkkkkkkkkkkjkkjbSh>;jDmlkjkkkkjjkkkmZx:-rvclkkkkhmAv<o  ",
"  o<cZmlklllllklllllllllAj;;jZmllllllllllllVZx:-rclllllllmZc<O  ",
"  +<jAMlmcmllmmlmlmllVlCCh;;hACllmmllmmlVllVZh:-rlmmmlcmmMZx1O  ",
"  @<lDCmmmmnVVmVmmVmVmVCAh>>hCNmmmmVmmmmlVmVZz:-wcmVVmmmmVZk<O  ",
"  @:egspppapppppgpppippgf0%%0dgrppidaaaasppssq-#3rpppppppage>@  ",
"  +%;;**--------;:;-****;%++%*****-;;:;-***;;$@@$=-;--&-*;;;%@  ",
"  +=:,,,::::::<:@@;,>>,>,<<<>><<>,,:@@-,,>::,,<<<<::::::,,,,%@  ",
"  +<aBmnvvvvvMMy--aMnnmnnnMnbblCmMMy-;aBmvvvnnnnnnvvnnvvvnMf,@  ",
"  +2BLKJJJJJJKLM<,MLKGKJJJJJJJHHJKLM,,nLKKKGKGKGJJJJJJJGKKLB3o  ",
"  O2MKDCCCCZCDKm>>bKACZCCZCCDCDCNAKn>>bKDCCCCCCCCCCCDCCCCDKM2o  ",
"  O2bHCmmmmllDGb>;xFCmVllVlmlmlmlNGc->bGCVlmmmmmmmmmlmlVlCHb2+  ",
"  O<cGCmmmmmmCDc>>lFCmmlmmCmmmVlNCFj>;lGCmmmmmmmmmmmmmVlCCHm1o  ",
"  O<cHDCCVCVCZGj>>lGDNNNCCCCVCVVCDGj>>lGDCVVCCVCCCCCCVCVCDHl1+  ",
"  O2nHDZZZZCZDHl,,lGDZCZDZDDDDDDCDHl<>lHDCDZDCDDCDDCDCCDCDHb1+  ",
"  O<acllkklkklbp*>pmlkljkkllkgllllmp**pblkkkglkggkgkklkkllbp,+  ",
"  O$,1<<<<<1111>%$,11<1<*<<***5*<11,%%>11<<<1<<<1<<1<<1<<13<$o  ",
"   .XoXXXXX..XXXOOXXXXXX@XXX@.XXXXXXoooXXXXXXXXXXXXXXXXXXXXXX   ",
"                                                                ",
"                                                                ",
"                                                                ",
"                                                                ",
"                                                                ",
"                                                                ",
"                                                                ",
"                                                                "
};
